<?xml version="1.0" standalone="no"?>
<!DOCTYPE svg PUBLIC "-//W3C//DTD SVG 20010904//EN"
 "http://www.w3.org/TR/2001/REC-SVG-20010904/DTD/svg10.dtd">
<svg version="1.0" xmlns="http://www.w3.org/2000/svg"
 width="485.000000pt" height="485.000000pt" viewBox="0 0 485.000000 485.000000"
 preserveAspectRatio="xMidYMid meet">
<metadata>
Created by potrace 1.11, written by Peter Selinger 2001-2013
</metadata>
<g transform="translate(0.000000,485.000000) scale(0.100000,-0.100000)"
fill="#000000" stroke="none">
<path d="M2396 3884 c-9 -8 -16 -13 -16 -9 0 3 -13 -3 -29 -14 -16 -12 -34
-21 -40 -21 -6 0 -11 -3 -11 -7 0 -5 -23 -19 -50 -32 -28 -14 -50 -29 -50 -34
0 -4 -4 -6 -9 -2 -6 3 -14 -2 -19 -11 -5 -9 -13 -16 -18 -16 -15 1 -84 -41
-84 -50 0 -5 -5 -6 -11 -2 -6 3 -15 1 -19 -5 -4 -7 -15 -13 -24 -15 -10 -1
-21 -7 -24 -12 -4 -5 -18 -15 -31 -22 -13 -8 -40 -23 -60 -34 -20 -11 -42 -25
-48 -30 -7 -6 -13 -7 -13 -4 0 4 -7 0 -16 -8 -8 -9 -22 -16 -30 -16 -8 0 -14
-4 -14 -9 0 -5 -13 -14 -30 -21 -16 -7 -30 -17 -30 -22 0 -5 -4 -6 -10 -3 -5
3 -10 1 -10 -6 0 -7 -3 -9 -6 -6 -4 4 -19 -2 -34 -13 -16 -11 -33 -20 -39 -20
-6 0 -11 -7 -11 -15 0 -8 -3 -14 -7 -14 -5 1 -11 0 -15 -1 -5 -1 -14 -3 -20
-4 -7 -1 -12 -8 -10 -16 3 -11 0 -11 -14 1 -16 12 -17 12 -11 -4 4 -10 3 -16
-2 -12 -5 3 -12 1 -16 -5 -4 -6 -10 -8 -15 -5 -4 3 -13 -2 -20 -10 -7 -8 -19
-15 -26 -15 -8 0 -14 -4 -14 -10 0 -5 -5 -10 -11 -10 -6 0 -23 -9 -39 -20 -15
-11 -30 -17 -34 -13 -3 3 -6 2 -6 -4 0 -6 -15 -16 -32 -24 -18 -7 -47 -23 -64
-36 -17 -13 -34 -20 -37 -16 -4 3 -7 -1 -7 -11 0 -9 -4 -14 -10 -11 -5 3 -20
-1 -33 -10 -23 -15 -23 -17 -23 -185 1 -130 5 -172 15 -182 8 -7 11 -8 8 -2
-5 9 31 11 137 10 80 -1 142 2 139 7 -3 5 3 5 13 0 15 -7 153 -10 220 -4 7 1
15 12 18 26 4 14 11 23 15 20 5 -3 17 2 25 11 9 8 16 12 16 8 0 -3 6 -1 13 5
8 6 17 8 20 4 4 -3 7 -1 7 6 0 6 11 16 25 21 14 5 25 14 25 20 0 6 4 9 9 6 5
-3 20 4 35 15 14 11 26 18 26 14 0 -4 7 1 16 9 8 9 21 13 27 9 6 -4 8 -1 5 8
-4 10 1 15 15 16 11 1 24 8 28 15 5 7 9 9 9 5 0 -5 13 1 29 12 16 12 34 21 40
21 6 0 11 5 11 10 0 6 5 10 11 10 7 0 18 8 26 18 8 9 11 11 8 4 -4 -8 11 -2
33 12 22 14 43 22 48 18 4 -4 4 -2 1 4 -3 6 9 17 28 24 19 8 35 17 35 22 0 4
7 8 15 8 8 0 15 5 15 11 0 6 5 9 12 7 6 -2 20 4 30 14 10 10 23 16 28 13 6 -4
10 -1 10 4 0 6 6 11 14 11 17 0 27 26 22 55 -4 26 13 37 31 19 8 -8 19 -12 24
-9 5 4 9 2 9 -4 0 -6 16 -18 35 -27 19 -9 35 -20 35 -25 0 -5 7 -6 15 -3 8 4
15 1 15 -6 0 -7 7 -10 16 -6 8 3 12 2 9 -4 -3 -6 4 -15 17 -20 13 -6 38 -19
56 -30 17 -11 32 -16 32 -12 0 4 5 -1 11 -11 6 -9 14 -15 20 -12 5 4 9 1 9 -4
0 -6 7 -11 15 -11 8 0 15 -5 15 -11 0 -6 7 -9 15 -5 8 3 15 1 15 -4 0 -5 21
-21 48 -35 26 -14 70 -38 97 -55 28 -17 66 -38 85 -48 19 -9 41 -23 48 -29 13
-12 26 -16 37 -10 2 1 12 -8 20 -21 9 -12 19 -20 23 -18 9 5 58 -20 55 -28 -2
-3 -3 -21 -3 -39 l0 -32 83 0 84 0 -2 85 c-3 104 -3 103 -15 95 -5 -3 -10 -1
-10 4 0 6 -5 11 -11 11 -6 0 -24 9 -40 21 -16 11 -29 18 -29 14 0 -3 -10 3
-22 14 -11 11 -24 18 -28 16 -4 -3 -15 4 -25 15 -10 11 -22 17 -26 14 -5 -3
-9 0 -9 5 0 6 -8 11 -18 11 -11 0 -27 9 -38 21 -10 11 -26 18 -35 16 -11 -3
-16 0 -13 7 2 6 -8 17 -23 24 -16 6 -43 21 -60 32 -18 11 -33 17 -33 14 0 -3
-7 2 -16 10 -8 9 -22 16 -30 16 -8 0 -13 4 -10 9 5 7 -24 21 -42 20 -1 0 -10
7 -18 16 -9 8 -20 13 -25 10 -5 -4 -9 -1 -9 5 0 6 -8 13 -17 17 -10 3 -30 14
-44 24 -14 10 -29 16 -33 12 -3 -3 -6 -1 -6 6 0 7 -4 9 -10 6 -5 -3 -10 -1
-10 4 0 6 -7 11 -15 11 -8 0 -15 5 -15 10 0 6 -6 10 -14 10 -7 0 -19 7 -26 15
-7 8 -16 13 -20 10 -5 -3 -10 -2 -12 2 -4 10 -53 40 -98 60 -64 28 -65 32 -64
222 0 94 -3 171 -7 171 -4 0 -15 -7 -23 -16z m108 -480 c3 -8 2 -12 -4 -9 -6
3 -10 10 -10 16 0 14 7 11 14 -7z m-954 -66 c0 -18 -2 -20 -9 -8 -6 8 -7 18
-5 22 9 14 14 9 14 -14z m113 -13 c4 -8 1 -17 -5 -21 -7 -4 -8 -3 -4 4 4 7 2
12 -4 12 -6 0 -8 5 -5 10 8 14 12 13 18 -5z m898 -2 c13 -16 12 -17 -3 -4 -10
7 -18 15 -18 17 0 8 8 3 21 -13z m-974 -55 c2 -17 0 -19 -7 -8 -5 8 -6 18 -4
22 8 12 10 10 11 -14z m123 8 c0 -3 -4 -8 -10 -11 -5 -3 -10 -1 -10 4 0 6 5
11 10 11 6 0 10 -2 10 -4z m-90 -46 c8 -5 11 -10 5 -10 -5 0 -17 5 -25 10 -8
5 -10 10 -5 10 6 0 17 -5 25 -10z m105 -10 c3 -6 -1 -7 -9 -4 -18 7 -21 14 -7
14 6 0 13 -4 16 -10z m-275 -10 c0 -5 -5 -10 -11 -10 -5 0 -7 5 -4 10 3 6 8
10 11 10 2 0 4 -4 4 -10z m433 -115 c4 3 5 2 2 -2 -3 -3 1 -13 8 -22 11 -14
10 -14 -6 -2 -10 8 -23 24 -28 35 -9 19 -9 19 4 4 8 -10 17 -16 20 -13z"/>
<path d="M2609 3798 c0 -7 -2 -24 -3 -37 -3 -26 28 -65 47 -58 6 2 21 -7 33
-20 12 -13 29 -23 38 -23 9 0 16 -4 16 -10 0 -5 7 -10 15 -10 8 0 15 -5 15
-11 0 -5 4 -8 9 -4 5 3 12 1 16 -5 3 -5 23 -17 43 -27 20 -9 39 -19 42 -22 9
-10 64 -42 83 -48 9 -3 17 -9 17 -14 0 -5 9 -9 20 -9 11 0 20 -4 20 -10 0 -5
7 -10 15 -10 8 0 15 -3 15 -8 0 -7 54 -34 65 -32 3 0 15 -9 27 -20 12 -11 28
-20 35 -20 7 0 13 -5 13 -11 0 -5 5 -7 10 -4 6 3 10 1 10 -5 0 -6 5 -8 10 -5
6 3 10 2 10 -4 0 -5 9 -13 20 -16 11 -3 26 -12 32 -18 7 -7 39 -25 71 -41 31
-16 60 -33 63 -37 3 -5 9 -7 14 -4 4 3 11 -2 14 -11 3 -9 12 -14 19 -11 6 2
22 -7 34 -20 12 -13 25 -24 28 -24 23 -3 45 -13 45 -21 0 -5 5 -6 10 -3 6 3
10 2 10 -3 0 -6 12 -14 28 -20 l27 -9 -1 -109 c0 -60 3 -119 8 -132 5 -14 4
-21 -1 -17 -5 3 -8 -9 -6 -27 5 -45 4 -45 15 -28 7 11 10 11 10 2 0 -7 5 -10
10 -7 14 9 42 -14 33 -28 -3 -6 -1 -7 6 -3 6 4 8 12 5 18 -9 14 -11 68 -3 68
8 0 4 38 -4 46 -9 10 -9 26 1 21 4 -3 7 10 7 29 0 19 -4 34 -10 34 -5 0 -3 5
5 10 12 8 12 10 1 10 -10 0 -11 3 -2 14 8 9 8 16 2 20 -7 5 -7 15 -1 31 6 16
6 25 -1 25 -6 0 -6 7 1 19 7 14 7 22 0 26 -6 4 -8 11 -5 16 4 5 -1 9 -9 9 -9
0 -16 4 -16 9 0 5 -8 12 -17 15 -10 4 -34 16 -54 29 -70 43 -79 48 -79 41 0
-4 -9 3 -19 15 -11 12 -21 21 -23 20 -8 -5 -48 13 -48 22 0 6 -4 7 -10 4 -5
-3 -10 -1 -10 5 0 6 -4 8 -10 5 -5 -3 -10 -2 -10 2 0 5 -13 17 -30 26 -16 10
-30 15 -30 12 0 -3 -10 3 -22 14 -11 11 -25 18 -30 15 -4 -3 -8 -1 -8 5 0 6
-11 13 -25 17 -14 3 -25 10 -25 15 0 5 -6 9 -13 9 -7 0 -31 13 -54 30 -22 16
-42 27 -45 24 -3 -3 -18 6 -33 20 -15 14 -31 23 -36 21 -4 -3 -12 3 -18 12 -6
10 -11 15 -11 10 0 -4 -18 4 -40 18 -22 14 -44 25 -50 25 -5 0 -10 3 -10 8 0
4 -13 13 -30 20 -16 7 -45 24 -65 37 -19 14 -35 21 -35 17 0 -4 -4 -2 -8 5 -4
6 -14 13 -22 15 -14 3 -20 7 -53 35 -11 9 -18 9 -27 0 -7 -7 -10 -7 -7 -1 3 6
-3 18 -14 27 -10 9 -19 14 -19 12 0 -3 -9 -1 -20 5 -15 8 -20 8 -21 -2z"/>
<path d="M2427 3030 c2 -176 1 -170 18 -170 8 0 15 -4 15 -10 0 -5 7 -10 15
-10 8 0 15 -6 15 -13 0 -8 13 -12 35 -11 19 1 38 -2 41 -8 4 -5 10 -5 17 0 7
5 42 9 78 9 36 0 70 2 76 6 5 3 22 0 37 -8 14 -8 24 -10 21 -6 -5 10 31 22 39
13 12 -11 56 -11 50 0 -5 7 -2 8 5 3 17 -10 131 -13 137 -3 3 4 -7 10 -21 14
-14 3 -25 10 -25 15 0 5 -7 9 -15 9 -8 0 -15 5 -15 11 0 6 -9 9 -19 6 -15 -3
-18 -1 -14 11 4 10 2 13 -5 8 -6 -3 -13 -2 -17 4 -4 6 -11 8 -16 5 -5 -4 -9
-2 -9 3 0 5 -12 15 -27 23 -16 7 -46 25 -68 40 -22 14 -50 29 -62 33 -13 4
-23 12 -23 18 0 5 -7 8 -15 4 -8 -3 -15 -1 -15 4 0 11 -60 44 -60 33 0 -5 -4
-3 -8 2 -11 17 -72 57 -72 48 0 -4 -4 -3 -8 2 -11 16 -60 45 -74 45 -10 0 -13
-30 -11 -130z"/>
<path d="M848 2745 c-3 -3 -18 -8 -33 -11 -88 -16 -172 -117 -193 -231 -30
-167 27 -311 149 -378 47 -26 64 -29 134 -29 119 0 192 43 240 142 23 48 24
68 2 70 -17 1 -38 7 -67 19 -32 13 -37 10 -56 -38 -28 -68 -110 -99 -186 -70
-15 6 -40 29 -55 52 -25 38 -28 51 -29 139 -3 148 38 215 137 224 65 6 100
-13 134 -71 12 -21 25 -31 35 -29 8 3 34 10 58 16 49 12 53 27 21 80 -32 53
-74 86 -132 103 -53 15 -148 23 -159 12z"/>
<path d="M1276 2730 c-9 -16 2 -461 12 -495 28 -97 123 -147 266 -140 134 7
209 67 220 177 5 43 8 216 7 379 l-1 86 -60 1 c-33 0 -62 -3 -65 -7 -2 -5 -5
-105 -5 -224 -1 -118 -4 -225 -7 -236 -9 -36 -60 -64 -114 -65 -58 0 -99 26
-114 71 -5 16 -10 125 -10 242 0 204 -1 212 -20 216 -25 6 -106 2 -109 -5z"/>
<path d="M1899 2731 c-1 -3 -2 -27 -3 -53 l-1 -48 142 0 c79 0 143 -3 143 -6
0 -3 -55 -73 -122 -156 -68 -82 -132 -162 -143 -177 -11 -14 -28 -35 -37 -45
-10 -11 -18 -27 -19 -35 -4 -64 -3 -94 6 -101 16 -12 503 -9 508 4 2 6 3 31 2
56 l-1 44 -177 0 -176 0 26 35 c41 54 145 181 170 208 12 13 19 23 16 23 -4 0
2 8 13 19 10 10 26 27 34 37 68 86 78 102 80 134 4 72 24 67 -230 67 -126 0
-231 -3 -231 -6z"/>
<path d="M2456 2731 c-2 -3 -3 -145 -2 -316 l1 -310 230 -1 c127 -1 236 1 242
4 15 5 13 100 -2 105 -5 1 -85 2 -176 2 l-165 -1 0 83 c1 82 1 83 26 84 14 1
84 2 155 3 l130 1 2 53 c2 60 23 54 -182 54 l-130 0 0 67 0 66 159 2 c88 1
165 4 171 7 12 4 14 74 3 92 -8 12 -456 16 -462 5z"/>
<path d="M2999 2736 c0 -1 -2 -22 -4 -48 -3 -57 3 -61 108 -59 74 2 77 1 78
-21 0 -13 1 -131 2 -263 l2 -240 65 0 65 0 1 255 c1 140 2 258 3 262 0 4 25 7
54 7 28 -1 69 -1 90 0 l37 1 0 54 0 53 -250 0 c-137 0 -250 -1 -251 -1z"/>
<path d="M3585 2716 c-2 -12 -3 -154 -2 -316 l2 -295 65 -1 c71 -1 90 4 69 17
-11 6 -11 14 -2 39 6 16 7 28 2 24 -12 -7 -11 7 1 26 5 9 5 19 -2 27 -7 9 -7
18 3 30 12 15 12 16 -1 8 -13 -8 -13 -7 -1 8 10 13 10 17 1 17 -10 0 -10 3 -1
14 9 11 9 16 0 21 -8 6 -7 10 2 16 12 7 11 9 0 9 -12 0 -11 3 2 13 12 8 51 11
128 9 l110 -3 -1 -112 c-2 -179 -7 -162 48 -164 87 -3 80 -31 80 321 l0 313
-64 0 -64 0 -1 -61 c0 -33 -1 -89 -1 -123 l0 -63 -67 -1 c-36 0 -78 -2 -93 -3
-16 -1 -28 2 -28 6 0 4 -7 5 -15 2 -27 -11 -47 3 -36 24 7 13 7 22 -1 30 -9 9
-9 12 1 12 10 0 11 3 2 14 -9 11 -9 15 1 19 10 4 10 6 -1 6 -10 1 -11 4 -2 15
8 10 9 16 1 21 -7 4 -7 12 0 26 6 10 7 19 3 19 -4 0 -8 11 -8 24 0 13 3 22 8
19 4 -2 7 0 7 5 0 5 -32 9 -70 9 -63 0 -71 -2 -75 -21z"/>
<path d="M3712 2035 c14 -15 -12 -34 -39 -29 -23 4 -25 3 -13 -11 11 -13 10
-15 -1 -10 -12 5 -14 -9 -13 -81 2 -47 5 -92 8 -100 3 -8 1 -14 -4 -14 -5 0
-7 -10 -4 -22 6 -32 -14 -65 -43 -73 -14 -3 -21 -10 -17 -17 4 -7 3 -8 -5 -4
-6 4 -25 -2 -41 -14 -17 -12 -30 -18 -30 -13 0 4 -5 0 -11 -10 -6 -9 -14 -15
-20 -12 -5 4 -9 1 -9 -4 0 -6 -7 -11 -15 -11 -8 0 -15 -5 -15 -11 0 -5 -4 -8
-9 -4 -5 3 -13 0 -17 -6 -3 -6 -22 -17 -40 -25 -19 -8 -34 -19 -34 -25 0 -5
-4 -7 -10 -4 -5 3 -10 3 -10 -2 0 -4 -20 -17 -45 -28 -25 -11 -45 -23 -45 -28
0 -4 -4 -6 -9 -3 -5 3 -12 -1 -15 -10 -4 -9 -9 -14 -13 -11 -3 3 -25 -7 -49
-23 -23 -17 -50 -30 -59 -30 -9 0 -14 -4 -11 -8 3 -5 -11 -14 -30 -21 -18 -7
-34 -17 -34 -22 0 -5 -9 -9 -20 -9 -11 0 -23 -7 -26 -15 -4 -8 -10 -13 -14
-10 -4 3 -18 -4 -31 -14 -31 -24 -92 -56 -101 -53 -5 1 -8 -3 -8 -9 0 -5 -13
-15 -30 -20 -16 -6 -30 -16 -30 -22 0 -6 -3 -7 -7 -4 -3 4 -21 -4 -39 -18 -18
-14 -40 -25 -48 -25 -9 0 -16 -4 -16 -10 0 -5 -7 -10 -15 -10 -8 0 -15 -3 -15
-7 0 -5 -10 -13 -23 -19 -66 -33 -135 -73 -131 -76 2 -3 -2 -5 -9 -5 -9 0 -13
18 -13 59 -1 62 -9 78 -42 81 -11 0 -18 5 -16 9 3 4 -2 8 -10 8 -9 0 -16 5
-16 11 0 5 -4 7 -10 4 -5 -3 -10 -2 -10 4 0 8 -33 24 -50 24 -3 0 -10 7 -17
16 -7 9 -13 12 -13 8 0 -4 -10 1 -22 12 -11 11 -25 18 -30 15 -4 -3 -8 0 -8 6
0 6 -4 8 -10 5 -5 -3 -10 -1 -10 4 0 6 -5 11 -11 11 -6 0 -30 13 -53 30 -24
16 -46 26 -50 23 -3 -4 -6 0 -6 7 0 7 -3 11 -6 7 -4 -3 -13 1 -21 9 -8 8 -19
12 -24 9 -5 -4 -9 1 -9 9 0 9 -3 16 -7 15 -16 -2 -53 14 -53 22 0 5 -7 9 -15
9 -8 0 -15 5 -15 10 0 6 -7 10 -17 10 -9 0 -31 11 -48 25 -18 13 -35 21 -39
18 -3 -4 -6 -1 -6 5 0 7 -9 12 -21 12 -11 0 -17 5 -14 10 4 6 3 9 -2 8 -10 -3
-86 42 -91 54 -2 5 -11 3 -20 -4 -10 -7 -14 -9 -10 -4 9 11 -16 36 -36 36 -9
0 -16 4 -16 8 0 5 -16 14 -35 22 -19 8 -35 17 -35 21 0 8 -62 35 -73 31 -5 -1
-6 2 -2 8 3 5 -1 10 -9 10 -9 0 -16 5 -16 11 0 5 -4 8 -9 5 -5 -3 -14 1 -21 9
-7 8 -18 15 -26 15 -17 0 -37 37 -30 55 3 8 1 17 -5 21 -6 4 -6 11 2 20 9 11
9 14 0 14 -8 0 -9 5 -1 19 7 13 7 22 0 26 -7 4 -7 13 0 26 8 14 7 19 -1 19 -9
0 -9 3 0 14 19 23 -4 29 -101 30 l-88 1 4 -33 c2 -18 0 -35 -5 -38 -5 -2 -4
-15 1 -28 5 -15 5 -27 -3 -35 -7 -7 -7 -11 -1 -11 6 0 9 -15 8 -32 -1 -18 3
-39 9 -47 9 -11 9 -13 0 -8 -6 4 -14 3 -18 -3 -3 -5 -2 -10 3 -10 4 0 7 -20 5
-44 -3 -38 0 -46 17 -51 11 -3 20 -11 20 -16 0 -5 4 -9 10 -9 5 0 39 -18 75
-40 36 -22 70 -40 75 -40 6 0 10 -4 10 -10 0 -5 8 -10 17 -10 9 0 24 -6 32
-14 31 -27 132 -76 144 -70 7 4 9 4 5 -1 -12 -13 41 -51 65 -47 4 1 7 -2 7 -7
0 -5 9 -13 20 -16 11 -3 26 -12 32 -18 7 -7 40 -25 73 -42 33 -16 65 -37 72
-45 7 -8 13 -11 13 -7 0 4 19 -5 43 -21 23 -16 52 -32 65 -36 12 -4 22 -11 22
-16 0 -4 8 -10 18 -13 23 -8 117 -61 137 -77 8 -7 15 -9 15 -6 0 4 10 -2 22
-13 11 -11 25 -18 30 -15 4 3 8 1 8 -4 0 -4 16 -14 35 -22 19 -8 35 -17 35
-22 0 -4 6 -8 14 -8 8 0 16 -5 18 -10 2 -6 13 -12 26 -13 12 0 22 -7 22 -15 0
-7 4 -11 9 -7 5 3 17 -2 25 -11 9 -8 16 -13 16 -9 0 4 7 -1 16 -9 8 -9 20 -14
25 -11 5 4 9 1 9 -5 0 -6 5 -8 10 -5 6 4 8 11 5 16 -3 5 0 6 8 4 7 -3 24 3 36
14 13 12 27 18 31 16 4 -3 11 2 14 11 3 8 10 12 16 9 5 -3 10 -1 10 4 0 6 7
11 15 11 8 0 15 5 15 11 0 5 5 7 10 4 6 -3 10 -2 10 2 0 5 18 16 40 26 23 9
38 22 35 27 -3 6 1 7 9 4 9 -4 18 0 22 9 3 9 12 13 20 10 7 -3 17 2 20 11 3 9
10 13 15 11 4 -3 17 3 29 15 11 11 20 17 20 14 0 -4 6 -2 13 4 12 10 58 37
130 75 20 12 37 25 37 29 0 5 5 6 10 3 6 -3 10 -1 10 5 0 6 4 9 9 6 5 -3 14 1
21 9 7 8 18 15 26 15 7 0 19 6 26 13 7 7 30 21 50 30 20 10 40 22 43 27 4 6
11 8 16 5 5 -4 9 -2 9 4 0 5 25 22 55 37 30 16 55 31 55 35 0 7 39 22 53 20 4
-1 7 2 7 7 0 4 20 18 45 32 25 14 45 28 45 33 0 4 4 6 9 2 5 -3 16 2 25 10 8
9 17 15 18 15 10 -4 37 14 32 21 -3 5 2 6 10 3 11 -4 16 0 16 11 0 9 5 13 10
10 6 -3 36 10 68 30 l58 36 -1 72 c0 40 -5 78 -9 86 -6 9 -5 12 1 8 8 -5 11
95 3 128 -1 6 -1 12 0 15 8 21 6 41 -3 47 -7 3 -9 3 -5 -2z m-1419 -878 c3 -8
-1 -14 -9 -14 -15 0 -18 9 -7 20 9 9 10 9 16 -6z"/>
<path d="M1474 1998 c-2 -3 -4 -36 -3 -72 1 -49 5 -66 15 -66 8 0 14 -5 14
-11 0 -6 7 -9 15 -5 9 3 15 0 15 -10 0 -8 5 -12 10 -9 6 3 10 1 10 -6 0 -7 3
-9 6 -6 4 3 18 -3 32 -13 13 -11 33 -20 44 -20 11 0 17 -4 13 -9 -5 -9 24 -24
50 -26 6 0 9 -7 7 -15 -2 -8 0 -12 4 -8 4 4 20 -2 35 -13 16 -11 29 -17 29
-12 0 4 4 3 8 -4 4 -6 14 -13 22 -15 8 -2 23 -11 34 -20 11 -10 26 -18 33 -18
7 0 13 -5 13 -11 0 -5 4 -8 8 -5 5 3 19 -4 31 -15 12 -11 26 -17 31 -14 6 3
10 1 10 -4 0 -6 6 -11 14 -11 8 0 16 -4 18 -8 5 -13 95 -62 101 -55 4 3 9 -2
13 -11 3 -9 10 -13 15 -10 5 3 9 1 9 -5 0 -10 42 -27 48 -20 2 2 8 -4 13 -13
6 -10 17 -18 24 -18 8 0 15 -5 15 -11 0 -5 5 -7 10 -4 6 3 10 1 10 -5 0 -6 5
-8 10 -5 6 3 10 1 10 -4 0 -6 7 -11 15 -11 9 0 18 -7 21 -15 4 -8 10 -13 14
-10 5 3 16 -2 24 -11 9 -8 16 -13 16 -9 0 3 20 -8 45 -25 25 -17 45 -26 45
-21 0 6 11 13 25 17 14 3 25 10 25 15 0 5 6 9 13 9 7 0 22 8 33 18 19 18 27
22 43 22 5 0 16 6 23 14 8 7 33 23 56 35 23 12 42 26 42 32 0 6 5 7 10 4 6 -4
25 4 43 18 18 13 42 27 55 31 12 4 22 12 22 17 0 6 4 8 9 5 4 -3 16 3 26 14
10 11 22 17 26 14 5 -3 9 0 9 6 0 6 5 8 10 5 6 -3 10 -2 10 3 0 4 16 14 35 22
19 8 35 17 35 22 0 4 6 8 14 8 8 0 17 7 20 16 3 8 10 13 15 10 5 -3 19 3 32
13 24 19 30 21 50 21 5 0 8 4 5 9 -5 8 29 25 47 22 4 -1 7 3 7 7 0 5 18 17 40
27 22 10 40 22 40 27 0 4 8 8 18 8 11 0 27 9 37 20 10 11 21 17 25 15 12 -7
52 33 45 45 -4 6 -1 17 5 25 10 12 10 15 -1 15 -11 0 -11 2 1 10 8 5 10 10 5
10 -6 0 -11 9 -11 20 0 11 5 20 10 20 6 0 6 4 -1 11 -13 13 -122 18 -130 6 -3
-4 -10 -3 -17 2 -16 14 -26 4 -26 -26 0 -13 -4 -22 -9 -18 -6 3 -14 -2 -19
-11 -5 -9 -12 -15 -16 -14 -13 2 -65 -34 -60 -42 3 -4 -3 -5 -12 -1 -10 4 -20
0 -26 -11 -5 -9 -13 -14 -19 -11 -5 4 -9 1 -9 -4 0 -6 -3 -10 -7 -9 -10 3 -53
-21 -71 -39 -8 -7 -18 -11 -23 -8 -5 4 -9 2 -9 -2 0 -5 -21 -20 -47 -33 -27
-14 -50 -28 -53 -31 -9 -11 -53 -22 -46 -11 3 5 0 21 -7 34 -13 26 -44 29 -58
6 -5 -7 -9 -8 -9 -3 0 6 -7 2 -15 -9 -7 -10 -18 -15 -24 -11 -6 3 -11 2 -11
-4 0 -5 -9 -13 -20 -16 -11 -4 -17 -11 -14 -17 4 -6 1 -9 -7 -6 -8 3 -30 -5
-49 -17 -19 -12 -43 -24 -52 -28 -10 -3 -18 -11 -18 -17 0 -6 -4 -9 -9 -5 -5
3 -16 -1 -23 -9 -8 -7 -23 -16 -33 -20 -18 -5 -20 -1 -20 48 -1 31 3 52 8 49
5 -3 12 -2 16 3 3 5 27 20 53 33 26 14 45 29 42 33 -5 7 18 12 39 9 4 0 7 4 7
9 0 6 6 10 14 10 8 0 22 7 30 16 9 8 16 12 16 7 0 -4 5 -1 10 7 5 8 15 15 22
15 7 1 12 6 11 12 -1 5 10 9 24 7 23 -2 60 11 73 27 3 4 15 9 28 13 12 4 22
12 22 17 0 5 7 9 15 9 8 0 24 9 35 20 11 11 23 20 28 20 20 0 42 13 42 23 0
15 -241 17 -252 2 -5 -7 -8 -7 -8 0 0 6 -52 10 -137 9 l-137 0 -1 -40 c0 -28
-5 -40 -18 -42 -9 -2 -17 1 -17 7 0 6 -7 11 -15 11 -8 0 -15 5 -15 11 0 5 -4
8 -9 4 -5 -3 -15 0 -23 7 -23 23 -66 41 -82 35 -8 -3 -17 -3 -20 1 -6 10 -309
7 -326 -3 -7 -5 -11 -4 -8 1 4 5 -83 9 -209 9 -118 0 -217 -3 -219 -7z m1056
-108 c0 -5 -2 -10 -4 -10 -3 0 -8 5 -11 10 -3 6 -1 10 4 10 6 0 11 -4 11 -10z
m-404 -162 c4 -7 4 -10 -1 -6 -4 4 -14 0 -22 -10 -13 -15 -13 -15 -3 6 12 25
16 27 26 10z m561 -63 c0 -8 -4 -12 -9 -9 -5 3 -6 10 -3 15 9 13 12 11 12 -6z
m46 -39 c10 -8 14 -17 9 -20 -6 -3 -13 1 -16 10 -3 8 -10 12 -16 9 -5 -3 -10
-1 -10 4 0 15 11 13 33 -3z m-403 -30 c0 -3 -4 -8 -10 -11 -5 -3 -10 -1 -10 4
0 6 5 11 10 11 6 0 10 -2 10 -4z"/>
</g>
</svg>
