<?xml version="1.0" standalone="no"?>
<!DOCTYPE svg PUBLIC "-//W3C//DTD SVG 20010904//EN"
 "http://www.w3.org/TR/2001/REC-SVG-20010904/DTD/svg10.dtd">
<svg version="1.0" xmlns="http://www.w3.org/2000/svg"
 width="348.000000pt" height="348.000000pt" viewBox="0 0 348.000000 348.000000"
 preserveAspectRatio="xMidYMid meet">
<metadata>
Created by potrace 1.11, written by Peter Selinger 2001-2013
</metadata>
<g transform="translate(0.000000,348.000000) scale(0.100000,-0.100000)"
fill="#000000" stroke="none">
<path d="M1765 3201 c-22 -15 -57 -35 -77 -44 -21 -10 -38 -22 -38 -28 0 -6
-3 -8 -7 -6 -5 3 -48 -19 -98 -48 -69 -40 -89 -57 -87 -71 2 -15 1 -16 -7 -5
-8 13 -15 12 -45 -4 -20 -11 -36 -26 -36 -33 0 -7 -4 -11 -9 -8 -12 8 -42 -4
-37 -13 3 -4 -5 -8 -16 -8 -12 -1 -24 -6 -27 -10 -3 -4 -15 -13 -26 -19 -104
-57 -143 -80 -164 -95 -13 -11 -30 -19 -37 -19 -8 0 -14 -4 -14 -10 0 -5 -7
-10 -16 -10 -8 0 -12 -4 -9 -10 3 -6 -1 -7 -9 -4 -11 4 -16 0 -16 -12 0 -9 -3
-15 -6 -11 -9 9 -65 -14 -58 -24 3 -5 7 -24 9 -42 3 -25 2 -28 -6 -14 -6 9 -7
22 -4 27 3 6 -1 13 -9 16 -13 5 -71 -24 -166 -85 -14 -8 -27 -16 -30 -16 -3 0
-18 -9 -35 -19 -57 -36 -100 -61 -127 -75 -21 -11 -27 -22 -30 -58 -2 -24 -2
-46 0 -48 3 -2 4 -60 3 -128 -2 -104 1 -125 14 -130 8 -4 15 -3 15 1 0 4 30 6
67 5 166 -6 194 -5 209 8 12 10 15 10 12 -2 -2 -8 3 -12 12 -10 8 2 59 4 112
3 89 -1 97 0 103 19 4 11 18 24 31 30 15 5 22 14 18 21 -4 7 -3 8 4 4 6 -4 47
14 92 40 70 41 79 49 68 63 -11 14 -11 14 3 3 14 -11 23 -9 55 9 22 12 59 33
84 47 25 14 57 33 72 43 14 11 31 19 37 19 6 0 11 5 11 11 0 5 4 8 9 4 5 -3
12 -1 16 5 3 5 21 17 40 26 19 9 35 21 35 26 0 5 4 7 9 3 5 -3 15 0 23 7 7 7
33 24 58 37 66 35 70 40 70 84 0 37 1 39 18 25 9 -8 32 -21 50 -29 17 -8 32
-17 32 -21 0 -5 7 -8 15 -8 8 0 15 -5 15 -11 0 -8 6 -7 17 2 9 8 14 9 10 2 -7
-11 59 -59 76 -55 4 1 7 -2 7 -7 0 -5 8 -11 18 -14 9 -3 40 -20 67 -36 28 -17
68 -40 90 -52 22 -12 47 -27 55 -34 8 -7 44 -28 80 -46 36 -19 67 -37 70 -40
3 -3 20 -12 38 -20 17 -8 32 -17 32 -21 0 -5 5 -8 10 -8 6 0 29 -12 53 -27 23
-15 44 -28 45 -29 2 -1 4 -17 5 -36 l2 -33 82 -3 c94 -3 91 -7 83 102 l-5 70
-75 43 c-41 23 -80 46 -87 52 -7 6 -19 11 -27 11 -8 0 -16 4 -18 8 -3 7 -38
29 -129 80 -75 42 -84 47 -89 52 -6 6 -50 31 -111 62 -24 13 -50 29 -57 36 -7
6 -20 12 -28 12 -8 0 -14 4 -14 8 0 4 -12 13 -27 20 -16 6 -44 22 -64 34 -20
13 -82 49 -138 81 l-101 58 2 92 c1 51 -1 98 -6 105 -4 6 -4 12 1 12 7 0 7
139 0 146 -1 1 -20 -10 -42 -25z m163 -536 c-3 -3 -9 2 -12 12 -6 14 -5 15 5
6 7 -7 10 -15 7 -18z m-877 -27 c8 -15 8 -18 0 -14 -6 4 -16 16 -22 28 -8 15
-8 18 0 14 6 -4 16 -16 22 -28z m34 13 c3 -5 2 -12 -3 -15 -5 -3 -9 1 -9 9 0
17 3 19 12 6z m-84 -106 c7 -13 3 -12 -10 5 -11 14 -21 30 -21 35 0 11 14 -7
31 -40z m113 -11 c5 -14 4 -15 -9 -4 -17 14 -19 20 -6 20 5 0 12 -7 15 -16z
m-264 -4 c8 -5 11 -12 8 -16 -4 -3 -14 1 -23 10 -18 17 -9 21 15 6z m-187 -14
c4 -10 1 -13 -8 -9 -8 3 -12 9 -9 14 7 12 11 11 17 -5z m278 -33 c13 -17 13
-17 -6 -3 -11 8 -22 16 -24 17 -2 2 0 3 6 3 6 0 17 -8 24 -17z m143 -49 c3 -8
2 -12 -4 -9 -6 3 -10 10 -10 16 0 14 7 11 14 -7z m165 3 c8 -10 7 -14 -2 -14
-8 0 -14 6 -14 14 0 7 1 13 2 13 2 0 8 -6 14 -13z m-409 -17 c0 -5 -2 -10 -4
-10 -3 0 -8 5 -11 10 -3 6 -1 10 4 10 6 0 11 -4 11 -10z m261 -41 c-5 -13 -10
-19 -10 -12 -1 15 10 45 15 40 3 -2 0 -15 -5 -28z m283 15 c3 -8 2 -12 -4 -9
-6 3 -10 10 -10 16 0 14 7 11 14 -7z m-99 -14 c3 -5 1 -10 -4 -10 -6 0 -11 5
-11 10 0 6 2 10 4 10 3 0 8 -4 11 -10z m-501 -26 c3 -8 2 -12 -4 -9 -6 3 -10
10 -10 16 0 14 7 11 14 -7z m226 -18 c0 -3 -4 -8 -10 -11 -5 -3 -10 -1 -10 4
0 6 5 11 10 11 6 0 10 -2 10 -4z"/>
<path d="M1993 3115 c-3 -9 -3 -19 0 -22 4 -3 2 -14 -4 -24 -7 -15 -6 -19 6
-19 8 0 15 -4 15 -10 0 -5 7 -10 15 -10 9 0 39 -16 68 -35 28 -19 55 -35 59
-35 4 0 24 -11 44 -25 20 -14 40 -22 45 -19 5 3 9 0 9 -6 0 -6 10 -15 23 -21
12 -5 40 -21 62 -34 22 -14 51 -30 65 -37 14 -7 27 -15 30 -18 9 -10 65 -41
83 -47 9 -3 17 -10 17 -15 0 -5 4 -7 9 -3 5 3 12 1 16 -4 3 -5 18 -16 33 -24
15 -8 68 -38 117 -67 50 -29 113 -66 140 -82 28 -16 62 -34 78 -41 15 -6 27
-15 27 -19 0 -4 7 -8 15 -8 8 0 15 -4 15 -10 0 -5 11 -12 23 -15 20 -5 24 -13
25 -47 1 -23 8 -48 14 -56 9 -11 9 -14 1 -9 -15 10 -19 -18 -15 -125 l3 -87
28 1 c16 1 32 -2 37 -5 12 -7 12 173 0 192 -6 9 -5 12 1 8 10 -7 13 158 3 165
-3 2 -25 14 -50 28 -25 13 -57 32 -71 42 -14 11 -35 20 -47 21 -11 0 -19 3
-17 5 6 7 -17 26 -55 44 -19 10 -57 30 -85 46 -50 29 -132 75 -170 96 -11 6
-22 13 -25 16 -14 14 -60 39 -60 33 0 -5 -4 -3 -8 3 -10 16 -138 85 -145 79
-4 -3 -5 -2 -2 1 2 4 -37 31 -88 60 -51 30 -99 59 -107 64 -8 6 -26 15 -39 20
-13 6 -44 24 -68 40 -50 34 -61 36 -70 15z"/>
<path d="M1810 2475 c0 -8 6 -15 13 -15 9 0 9 -2 0 -8 -17 -11 -16 -235 1
-225 6 4 5 -1 -3 -10 -12 -15 -9 -19 18 -34 17 -10 31 -23 31 -30 0 -8 72 -11
276 -11 234 -1 273 1 258 13 -14 9 -23 10 -32 3 -10 -8 -11 -7 -5 7 5 15 3 17
-11 12 -9 -4 -15 -3 -12 1 7 12 -52 44 -66 36 -6 -4 -8 -3 -5 3 4 5 -6 16 -21
24 -15 8 -29 16 -32 19 -3 3 -18 12 -35 20 -16 8 -38 20 -47 28 -9 8 -22 11
-29 6 -8 -4 -10 -3 -5 4 4 7 3 12 -3 12 -6 0 -35 16 -66 35 -30 20 -63 39 -73
42 -9 4 -23 13 -30 20 -8 7 -18 11 -23 8 -5 -4 -9 -2 -9 3 0 7 -74 52 -86 52
-2 0 -4 -7 -4 -15z"/>
<path d="M3095 2080 c3 -5 8 -10 11 -10 2 0 4 5 4 10 0 6 -5 10 -11 10 -5 0
-7 -4 -4 -10z"/>
<path d="M180 2053 c-58 -21 -130 -95 -153 -159 -41 -109 -29 -263 27 -352
109 -174 397 -159 478 25 10 24 16 48 13 53 -3 5 -24 14 -46 20 -22 6 -46 13
-54 16 -9 4 -20 -10 -34 -40 -50 -115 -200 -115 -255 -1 -15 30 -20 62 -20
130 -1 105 19 156 73 192 68 46 173 21 201 -47 10 -24 18 -30 34 -26 12 2 38
8 59 11 20 4 39 10 41 14 9 14 -32 88 -65 119 -19 18 -54 39 -78 47 -57 19
-163 18 -221 -2z"/>
<path d="M662 1818 c4 -272 8 -292 73 -345 46 -38 108 -55 194 -52 114 4 179
40 213 116 17 40 20 70 21 281 l2 237 -62 3 c-63 3 -63 3 -64 -25 0 -15 -1
-118 -2 -228 -2 -172 -5 -205 -20 -228 -25 -39 -53 -50 -114 -45 -42 4 -60 11
-81 32 l-27 26 -3 235 -3 235 -65 0 -66 0 4 -242z"/>
<path d="M1282 2008 l3 -53 143 0 c78 0 142 -1 142 -4 0 -2 -26 -36 -58 -75
-32 -39 -106 -130 -165 -203 l-106 -132 1 -55 1 -56 259 0 259 0 -3 53 -3 52
-173 0 c-94 0 -172 4 -172 8 0 5 37 54 83 110 266 327 254 309 253 357 l-1 45
-233 3 -233 2 3 -52z"/>
<path d="M1840 1745 l0 -315 241 0 240 0 -3 53 -3 52 -164 2 c-90 1 -169 4
-175 6 -7 3 -11 35 -10 83 l1 79 156 3 c93 1 157 7 158 12 3 38 1 78 -4 86 -3
5 -67 9 -149 9 -79 -1 -148 2 -153 6 -8 6 -12 89 -6 129 1 3 70 5 154 5 83 0
160 1 170 3 13 4 17 15 17 53 l0 49 -235 0 -235 0 0 -315z"/>
<path d="M2380 2010 c0 -33 4 -50 13 -51 6 -1 48 -2 92 -3 l80 -1 3 -262 2
-263 65 0 65 0 2 263 3 262 88 0 c62 0 87 4 88 13 1 6 2 29 2 50 l1 37 -252 3
-252 2 0 -50z"/>
<path d="M2970 1745 l0 -315 70 0 c40 0 70 4 70 10 0 6 -4 10 -9 10 -6 0 -9 9
-8 20 1 11 5 20 9 20 4 0 8 5 8 11 0 5 -4 7 -10 4 -6 -4 -7 2 -1 17 4 13 7 30
5 38 -1 8 -5 25 -8 38 -3 13 -1 20 5 17 5 -4 9 3 9 15 0 12 -4 19 -8 16 -5 -3
-9 1 -9 9 0 8 4 12 9 9 4 -3 8 6 8 19 0 24 0 24 114 24 76 0 116 -4 119 -11 2
-6 3 -68 2 -138 l-1 -128 62 0 c41 0 63 4 66 13 3 10 2 534 -1 600 -1 16 -9
18 -63 15 l-63 -3 -1 -110 c-1 -60 -2 -115 -3 -122 -1 -7 -36 -11 -113 -10
-91 0 -115 3 -125 16 -7 10 -8 22 -2 34 6 9 6 23 2 30 -11 18 -13 38 -2 31 5
-3 9 -1 9 5 0 5 -6 12 -12 14 -10 4 -10 6 0 6 6 1 12 6 12 12 0 5 -6 7 -12 3
-10 -6 -10 -4 0 7 6 7 12 20 12 29 0 13 -1 13 -10 0 -6 -9 -10 -10 -10 -3 0 6
4 14 9 17 5 4 8 14 7 24 -2 14 -15 18 -69 20 l-67 3 0 -316z"/>
<path d="M3101 1394 c0 -11 3 -14 6 -6 3 7 2 16 -1 19 -3 4 -6 -2 -5 -13z"/>
<path d="M3101 1354 c0 -11 3 -14 6 -6 3 7 2 16 -1 19 -3 4 -6 -2 -5 -13z"/>
<path d="M519 1323 c-5 -37 -4 -70 4 -80 6 -8 6 -13 0 -13 -5 0 -9 -13 -9 -30
0 -16 4 -30 8 -30 5 0 6 -6 2 -12 -5 -7 -8 -22 -8 -33 0 -11 3 -26 8 -33 4 -6
3 -12 -1 -12 -7 0 -9 -49 -4 -81 2 -11 78 -48 86 -41 5 4 5 2 1 -5 -4 -8 2
-15 19 -19 14 -3 25 -10 25 -14 0 -4 8 -10 18 -14 20 -6 120 -62 137 -76 7 -5
15 -7 18 -3 4 3 7 2 7 -4 0 -11 66 -46 88 -46 6 0 12 -6 12 -13 0 -6 12 -17
28 -23 27 -11 40 -18 94 -54 15 -10 33 -15 39 -11 8 4 9 3 5 -4 -6 -11 0 -14
20 -11 4 0 10 -4 13 -10 10 -15 120 -81 136 -81 7 0 15 -7 19 -15 3 -8 9 -14
13 -13 4 2 24 -7 43 -19 82 -50 373 -213 380 -213 5 0 10 -3 12 -7 2 -5 21
-18 44 -30 l40 -22 35 21 c19 12 52 31 74 42 59 32 139 79 145 86 3 3 31 19
62 35 32 17 58 33 58 38 0 4 9 7 20 7 11 0 20 3 20 8 0 4 14 13 30 20 17 8 28
18 24 23 -3 5 -2 9 3 8 14 -4 63 13 63 20 0 4 23 18 50 31 28 13 50 27 50 32
0 4 6 8 13 8 6 0 39 17 72 38 33 21 67 41 75 45 8 4 38 21 65 37 28 16 69 40
93 52 23 12 42 26 42 30 0 4 5 8 11 8 6 0 44 19 83 43 39 24 78 46 86 50 8 4
29 16 45 27 17 11 40 24 53 30 22 9 22 13 22 175 l0 165 -40 0 -40 0 0 -50 c0
-33 4 -50 13 -50 9 0 9 -2 0 -8 -7 -4 -11 -29 -11 -57 2 -127 9 -113 -106
-180 -57 -33 -102 -64 -99 -69 4 -5 1 -6 -5 -2 -11 6 -146 -67 -138 -75 3 -3
-4 -6 -16 -6 -12 -1 -24 -6 -27 -11 -3 -6 -26 -20 -51 -33 -25 -13 -47 -25
-50 -28 -3 -4 -22 -15 -42 -25 -21 -11 -38 -23 -38 -28 0 -5 -4 -7 -9 -4 -5 3
-19 -2 -32 -12 -13 -9 -33 -22 -44 -28 -11 -6 -47 -26 -80 -44 -33 -18 -67
-38 -75 -44 -8 -6 -24 -16 -35 -22 -11 -6 -95 -54 -187 -107 -91 -54 -169 -97
-172 -97 -3 0 -6 26 -6 58 0 58 0 58 -42 82 -24 14 -46 24 -50 22 -5 -1 -8 2
-8 6 0 10 -50 37 -62 34 -5 -1 -8 3 -8 8 0 6 -7 10 -15 10 -8 0 -15 5 -15 10
0 6 -4 10 -9 10 -6 0 -60 29 -121 65 -61 36 -131 76 -155 90 -25 13 -81 45
-125 70 -43 25 -82 45 -85 45 -3 0 -11 5 -18 10 -7 6 -55 36 -107 66 -52 30
-102 59 -110 64 -8 5 -37 21 -65 36 -27 14 -62 35 -77 45 -14 11 -30 19 -35
19 -4 0 -8 52 -8 115 l1 115 -93 0 c-51 0 -93 -3 -94 -7z m631 -514 c0 -6 -4
-7 -10 -4 -5 3 -10 11 -10 16 0 6 5 7 10 4 6 -3 10 -11 10 -16z m-60 -89 c0
-5 -5 -10 -11 -10 -5 0 -7 5 -4 10 3 6 8 10 11 10 2 0 4 -4 4 -10z m604 -247
c18 -22 18 -22 -7 -10 -14 6 -22 17 -20 25 3 7 6 12 7 10 1 -2 10 -13 20 -25z"/>
<path d="M857 1316 c-3 -9 -2 -88 2 -123 0 -6 11 -15 24 -19 12 -4 41 -20 65
-36 23 -16 47 -26 52 -23 6 3 10 2 10 -2 0 -10 61 -49 71 -46 4 1 15 -7 24
-17 10 -11 22 -20 27 -20 5 0 46 -22 91 -48 45 -27 89 -51 97 -55 8 -4 29 -16
45 -27 17 -11 47 -28 68 -37 20 -9 37 -20 37 -26 0 -5 7 -6 16 -3 8 3 12 2 9
-4 -3 -5 6 -12 20 -16 14 -3 25 -9 25 -13 0 -3 14 -13 32 -20 18 -8 51 -27 74
-43 23 -15 45 -28 49 -28 4 0 20 -9 36 -21 16 -11 29 -17 29 -12 0 4 4 3 8 -2
4 -6 19 -18 33 -27 23 -15 27 -15 55 1 16 9 32 21 36 26 4 6 8 7 8 3 0 -4 47
22 105 58 58 35 110 64 115 64 6 0 10 5 10 10 0 6 7 10 15 10 8 0 15 4 15 8 0
5 6 9 13 9 6 0 65 32 131 72 65 39 122 71 127 71 4 0 12 7 17 16 5 9 12 15 16
13 12 -3 86 41 86 52 0 5 3 8 8 7 14 -4 52 14 52 24 0 6 3 9 6 5 4 -3 31 9 60
28 30 19 59 35 64 35 6 0 10 5 10 11 0 5 4 8 9 5 15 -9 24 25 25 91 l1 61 -85
-1 c-68 -2 -85 -5 -86 -17 -2 -33 -5 -38 -21 -43 -10 -3 -40 -20 -68 -36 -27
-17 -63 -37 -80 -45 -34 -17 -87 -48 -95 -56 -3 -3 -22 -14 -42 -25 -21 -11
-38 -23 -38 -28 0 -4 -4 -6 -9 -3 -5 3 -21 -4 -35 -15 l-26 -21 -11 31 c-6 17
-15 31 -21 31 -5 0 -6 5 -3 10 10 15 -1 12 -38 -12 -19 -13 -50 -31 -68 -41
l-33 -18 53 -51 c29 -27 50 -52 48 -54 -2 -3 -27 19 -55 48 -56 57 -48 57
-137 3 -22 -13 -47 -27 -55 -31 -8 -4 -26 -15 -40 -25 l-25 -17 4 52 c2 34 9
57 22 69 10 10 19 15 19 11 0 -3 7 -1 15 6 15 12 53 35 105 62 14 7 27 15 30
18 3 3 22 14 44 25 21 11 40 26 43 33 4 8 9 9 17 3 9 -7 39 5 102 41 49 29 91
54 94 57 3 4 21 14 40 23 34 16 28 16 -182 16 -162 0 -216 -3 -212 -11 4 -8 2
-7 -7 1 -7 7 -38 12 -71 12 l-58 0 0 -51 c0 -46 -1 -49 -16 -35 -8 9 -22 16
-30 16 -8 0 -14 5 -14 11 0 5 -4 8 -9 5 -5 -4 -11 -3 -13 1 -1 5 -23 18 -46
31 -51 25 -190 33 -176 10 6 -10 5 -10 -8 0 -21 17 -645 16 -651 -2z m1048
-145 c3 -5 2 -12 -3 -15 -5 -3 -9 1 -9 9 0 17 3 19 12 6z m25 -51 c0 -5 -5
-10 -11 -10 -5 0 -7 5 -4 10 3 6 8 10 11 10 2 0 4 -4 4 -10z m350 -199 c0 -5
-7 -12 -16 -15 -14 -5 -15 -4 -4 9 14 17 20 19 20 6z"/>
</g>
</svg>
