<?xml version="1.0" standalone="no"?>
<!DOCTYPE svg PUBLIC "-//W3C//DTD SVG 20010904//EN"
 "http://www.w3.org/TR/2001/REC-SVG-20010904/DTD/svg10.dtd">
<svg version="1.0" xmlns="http://www.w3.org/2000/svg"
 width="700.000000pt" height="700.000000pt" viewBox="0 0 700.000000 700.000000"
 preserveAspectRatio="xMidYMid meet">
<metadata>
Created by potrace 1.11, written by Peter Selinger 2001-2013
</metadata>
<g transform="translate(0.000000,700.000000) scale(0.100000,-0.100000)"
fill="#000000" stroke="none">
<path d="M3320 6562 c-163 -93 -942 -543 -1215 -702 -88 -52 -187 -109 -220
-127 -33 -19 -67 -38 -75 -43 -14 -9 -148 -86 -220 -128 -19 -11 -64 -37 -100
-57 -36 -21 -83 -48 -105 -60 -22 -12 -87 -50 -143 -83 -57 -34 -105 -62 -106
-62 -15 0 -337 -197 -354 -216 l-22 -25 0 -1557 0 -1557 23 -27 c17 -21 312
-198 622 -373 22 -12 96 -55 165 -95 68 -40 140 -82 160 -93 19 -10 91 -52
160 -92 136 -79 307 -178 355 -205 17 -10 100 -58 185 -107 212 -123 489 -282
525 -303 17 -9 140 -81 275 -159 140 -81 255 -141 270 -141 14 0 61 21 105 46
44 25 98 56 120 69 22 12 96 55 165 95 69 40 197 114 285 165 88 51 176 102
195 114 19 11 42 24 50 28 8 3 31 16 50 28 19 12 55 33 80 47 25 14 191 110
370 213 179 104 336 195 350 202 14 8 41 23 60 35 19 11 125 72 235 135 110
64 217 126 237 139 21 13 39 24 41 24 17 0 366 213 380 232 16 22 17 106 17
1578 0 1486 0 1556 -18 1579 -14 19 -482 301 -499 301 -2 0 -27 15 -56 33 -29
18 -77 47 -107 64 -30 16 -154 88 -275 158 -121 71 -249 145 -285 165 -36 20
-92 53 -125 72 -102 59 -588 340 -622 359 -17 10 -148 85 -290 167 -416 241
-436 252 -463 252 -14 0 -95 -40 -180 -88z m243 -833 c23 -12 67 -36 97 -54
30 -18 242 -141 470 -273 497 -286 465 -268 637 -367 76 -44 147 -85 158 -91
90 -48 235 -138 251 -155 26 -29 26 -101 -1 -126 -11 -10 -85 -54 -165 -97
-80 -44 -168 -92 -197 -107 -57 -32 -98 -36 -128 -15 -18 12 -224 131 -330
191 -22 13 -107 62 -190 110 -82 48 -164 96 -182 106 -17 10 -120 69 -230 132
-109 63 -207 117 -218 122 -47 19 -37 24 -450 -215 -88 -51 -176 -102 -196
-114 -20 -11 -134 -77 -253 -146 -119 -69 -224 -129 -234 -135 -9 -5 -74 -43
-144 -83 -70 -40 -137 -85 -148 -99 -20 -25 -20 -38 -20 -813 0 -779 0 -788
20 -813 12 -15 74 -56 138 -93 64 -37 131 -74 147 -84 266 -154 357 -207 390
-226 22 -12 123 -70 225 -129 102 -59 201 -116 220 -127 19 -11 80 -47 136
-79 68 -40 112 -59 134 -59 23 0 73 23 164 76 72 42 146 85 164 95 85 49 182
105 362 209 579 335 568 329 602 323 18 -2 49 -14 68 -25 19 -12 60 -34 90
-51 30 -17 82 -46 115 -66 33 -20 77 -45 99 -56 96 -50 96 -150 0 -201 -22
-11 -152 -86 -289 -166 -138 -80 -270 -156 -295 -170 -25 -14 -88 -50 -140
-81 -104 -60 -100 -58 -356 -205 -98 -57 -186 -107 -194 -112 -58 -35 -223
-130 -226 -130 -2 0 -29 -16 -60 -36 -31 -20 -73 -38 -93 -41 -36 -5 -55 5
-281 137 -8 5 -103 59 -210 121 -164 94 -282 163 -527 305 -90 53 -260 150
-273 156 -93 46 -648 379 -662 399 -18 24 -19 61 -19 1133 l-1 1108 23 24 c13
14 84 60 159 103 426 245 631 363 760 439 80 47 163 95 185 107 22 12 139 79
260 150 121 70 238 138 260 150 22 12 85 48 140 80 169 99 168 99 238 64z
m1846 -1334 c9 -3 25 -18 34 -35 17 -27 18 -80 18 -732 0 -387 0 -754 -1 -816
0 -113 0 -114 -30 -144 -45 -45 -88 -36 -220 42 -58 34 -112 65 -120 69 -57
24 -158 94 -168 116 -18 38 -17 1230 1 1264 15 31 36 43 348 208 74 39 92 43
138 28z"/>
</g>
</svg>
