<?xml version="1.0" standalone="no"?>
<!DOCTYPE svg PUBLIC "-//W3C//DTD SVG 20010904//EN"
 "http://www.w3.org/TR/2001/REC-SVG-20010904/DTD/svg10.dtd">
<svg version="1.0" xmlns="http://www.w3.org/2000/svg"
 width="700.000000pt" height="700.000000pt" viewBox="0 0 700.000000 700.000000"
 preserveAspectRatio="xMidYMid meet">
<metadata>
Created by potrace 1.11, written by Peter Selinger 2001-2013
</metadata>
<g transform="translate(0.000000,700.000000) scale(0.100000,-0.100000)"
fill="#000000" stroke="none">
<path d="M3436 6963 c-224 -121 -2927 -1691 -2943 -1709 l-23 -25 0 -1729 0
-1729 23 -25 c12 -13 684 -406 1492 -873 1175 -678 1478 -848 1510 -851 37 -3
152 62 1520 852 1099 635 1485 862 1497 883 17 26 18 125 15 1755 -2 1713 -2
1728 -22 1747 -16 16 -2840 1652 -2944 1706 -38 19 -88 19 -125 -2z m100 -983
c25 -10 1929 -1105 1947 -1120 11 -10 -603 -342 -623 -337 -9 2 -297 166 -641
364 -343 198 -638 368 -656 377 -65 33 -82 26 -384 -147 -1100 -632 -1202
-692 -1220 -722 -18 -29 -19 -68 -19 -893 0 -739 2 -867 15 -891 9 -18 44 -46
92 -74 265 -154 1366 -788 1391 -801 36 -19 84 -21 115 -5 12 7 318 183 681
392 362 209 666 382 676 384 15 4 374 -192 588 -320 l33 -19 -53 -31 c-29 -16
-388 -223 -798 -460 -410 -237 -835 -482 -945 -546 -151 -87 -209 -115 -235
-115 -27 0 -92 33 -280 141 -135 78 -607 351 -1050 606 -594 344 -810 473
-822 494 -17 26 -18 105 -18 1243 0 1167 1 1216 19 1245 14 23 250 164 1031
615 557 322 1033 595 1059 607 53 26 60 27 97 13z m2134 -2461 l0 -1051 -32
19 c-18 10 -156 88 -305 173 l-273 155 0 715 1 715 297 162 c163 89 300 162
305 163 4 0 7 -473 7 -1051z"/>
</g>
</svg>
