<?xml version="1.0" standalone="no"?>
<!DOCTYPE svg PUBLIC "-//W3C//DTD SVG 20010904//EN"
 "http://www.w3.org/TR/2001/REC-SVG-20010904/DTD/svg10.dtd">
<svg version="1.0" xmlns="http://www.w3.org/2000/svg"
 width="1068.000000pt" height="1068.000000pt" viewBox="0 0 1068.000000 1068.000000"
 preserveAspectRatio="xMidYMid meet">
<metadata>
Created by potrace 1.11, written by Peter Selinger 2001-2013
</metadata>
<g transform="translate(0.000000,1068.000000) scale(0.100000,-0.100000)"
fill="#000000" stroke="none">
<path d="M5290 10107 c-40 -16 -4036 -2321 -4062 -2344 -10 -9 -24 -34 -33
-57 -14 -37 -15 -283 -13 -2387 l3 -2346 26 -34 c16 -20 75 -62 145 -103 577
-335 3746 -2164 3837 -2214 105 -57 123 -64 160 -59 30 3 110 43 277 139 370
212 1990 1147 2040 1178 25 15 223 130 440 255 1054 608 1298 749 1329 773 66
49 61 -139 61 2429 0 2276 -1 2339 -19 2380 -12 26 -34 51 -58 66 -31 20
-3386 1957 -3883 2242 -155 89 -195 102 -250 82z m265 -1382 c107 -36 235
-100 363 -181 29 -19 57 -34 62 -34 6 0 10 -4 10 -10 0 -5 4 -10 9 -10 5 0 57
-28 115 -62 59 -35 114 -68 124 -73 9 -6 60 -36 112 -67 185 -110 442 -258
448 -258 3 0 13 -6 21 -14 9 -8 32 -23 51 -34 19 -10 80 -45 135 -77 203 -118
268 -155 271 -155 2 0 30 -18 61 -40 32 -22 62 -40 66 -40 5 0 21 -8 35 -19
26 -18 49 -31 152 -89 25 -14 95 -55 155 -92 61 -37 115 -69 121 -71 5 -2 40
-24 77 -48 44 -30 70 -55 77 -74 5 -16 8 -32 6 -36 -3 -4 11 -17 30 -30 19
-13 33 -25 32 -27 -2 -1 -109 -60 -238 -130 -282 -152 -430 -223 -563 -270
l-100 -34 -36 18 c-20 11 -355 204 -746 429 -1110 640 -1012 587 -1066 587
-43 0 -113 -39 -1015 -559 -533 -307 -996 -576 -1029 -596 -104 -65 -95 61
-95 -1292 l0 -1182 23 -39 c24 -42 6 -31 602 -376 744 -431 1314 -759 1398
-805 76 -41 94 -47 130 -43 43 6 175 79 937 521 833 483 928 537 955 537 44 0
196 -55 317 -116 153 -76 558 -305 558 -315 0 -5 -26 -26 -58 -49 -31 -22 -75
-54 -97 -71 -34 -26 -201 -125 -355 -211 -25 -14 -101 -58 -170 -98 -139 -81
-144 -84 -320 -182 -69 -39 -208 -119 -310 -178 -102 -59 -212 -122 -245 -140
-33 -18 -125 -70 -205 -115 -80 -46 -161 -92 -180 -102 -19 -11 -62 -36 -95
-56 -107 -63 -225 -128 -535 -299 -189 -104 -220 -111 -300 -66 -25 14 -91 51
-147 82 -57 31 -149 81 -205 112 -124 68 -139 77 -343 194 -88 51 -185 106
-215 123 -30 16 -67 38 -82 49 -14 10 -28 18 -31 18 -3 0 -97 52 -209 117
-112 64 -255 145 -318 181 -63 36 -162 92 -219 124 -57 33 -125 72 -150 86
-25 14 -122 70 -215 124 -93 54 -170 98 -172 98 -9 0 -245 146 -289 179 -27
21 -94 63 -147 95 -139 82 -141 85 -150 284 -3 90 -9 180 -12 200 -5 35 -9
333 -21 1512 -3 289 -8 649 -11 800 -5 283 4 451 31 570 8 36 18 83 21 105 5
35 20 53 107 138 56 53 110 100 119 103 10 3 18 9 18 14 0 8 112 81 295 191
39 23 86 52 105 64 19 12 82 49 140 82 115 66 352 205 645 378 214 126 331
194 360 211 99 56 174 100 195 114 26 18 82 51 135 80 17 9 41 23 55 31 14 9
47 29 74 45 28 16 66 39 85 51 20 12 59 34 86 48 28 15 57 33 65 39 42 34 234
121 314 142 125 33 273 29 391 -11z m2763 -1938 c2 -23 13 -47 28 -62 22 -22
24 -32 24 -127 1 -192 -1 -482 -5 -648 -1 -91 -6 -509 -10 -930 -9 -988 -8
-967 -23 -982 -6 -6 -12 -30 -12 -52 0 -23 -4 -47 -8 -53 -6 -9 -72 24 -232
115 -341 194 -500 304 -569 391 l-31 39 0 919 0 919 38 36 c83 79 239 178 607
381 94 52 175 94 180 93 6 -2 11 -19 13 -39z"/>
<path d="M7867 6259 c-23 -13 -47 -62 -47 -94 0 -38 27 -84 56 -95 41 -16 89
-11 118 11 36 28 35 59 -2 59 -15 0 -33 -5 -39 -11 -19 -19 -57 -6 -67 24 -8
23 -6 31 12 49 22 22 22 22 56 4 60 -32 91 3 40 43 -29 23 -96 28 -127 10z"/>
<path d="M7830 5876 c0 -112 23 -146 98 -146 63 0 86 33 91 131 l3 79 -31 0
-31 0 0 -59 c0 -75 -6 -91 -35 -91 -29 0 -35 16 -35 91 0 59 0 59 -30 59 l-30
0 0 -64z"/>
<path d="M7850 5585 c0 -22 4 -25 35 -25 19 0 35 -3 35 -6 0 -4 -16 -29 -35
-55 -19 -27 -35 -60 -35 -74 0 -24 2 -25 75 -25 73 0 75 1 75 25 0 22 -4 25
-35 25 -19 0 -35 3 -35 8 0 4 16 29 35 56 19 27 35 60 35 73 0 22 -3 23 -75
23 -73 0 -75 -1 -75 -25z"/>
<path d="M7860 5175 l0 -105 65 0 c62 0 65 1 65 24 0 21 -6 25 -32 28 -41 4
-42 21 -2 28 20 4 30 12 32 28 3 19 -1 22 -27 22 -21 0 -31 5 -31 15 0 10 10
15 30 15 25 0 30 4 30 25 0 24 -2 25 -65 25 l-65 0 0 -105z"/>
<path d="M7840 4925 c0 -20 5 -25 25 -25 23 0 24 -3 27 -77 3 -77 3 -78 31
-81 26 -3 27 -1 27 40 0 80 10 117 34 120 13 2 22 11 24 26 3 21 1 22 -82 22
-85 0 -86 0 -86 -25z"/>
<path d="M7830 4515 l0 -105 30 0 c28 0 30 2 30 40 0 39 1 40 35 40 34 0 35
-1 35 -40 0 -38 2 -40 30 -40 l30 0 0 105 0 105 -30 0 c-28 0 -30 -3 -30 -34
0 -25 -5 -36 -19 -41 -33 -10 -51 5 -51 41 0 31 -3 34 -30 34 l-30 0 0 -105z"/>
</g>
</svg>
