<svg width="960" height="1068" viewBox="0 0 960 1068" fill="none" xmlns="http://www.w3.org/2000/svg">
<g filter="url(#filter0_f)">
<path d="M472.5 58.3301C477.141 55.6506 482.859 55.6506 487.5 58.3301L888.192 289.67C892.833 292.349 895.692 297.301 895.692 302.66V765.34C895.692 770.699 892.833 775.651 888.192 778.33L487.5 1009.67C482.859 1012.35 477.141 1012.35 472.5 1009.67L71.8078 778.33C67.1668 775.651 64.3078 770.699 64.3078 765.34V302.66C64.3078 297.301 67.1668 292.349 71.8078 289.67L472.5 58.3301Z" fill="url(#paint0_linear)"/>
</g>
<path d="M472.5 58.3301C477.141 55.6506 482.859 55.6506 487.5 58.3301L888.192 289.67C892.833 292.349 895.692 297.301 895.692 302.66V765.34C895.692 770.699 892.833 775.651 888.192 778.33L487.5 1009.67C482.859 1012.35 477.141 1012.35 472.5 1009.67L71.8078 778.33C67.1668 775.651 64.3078 770.699 64.3078 765.34V302.66C64.3078 297.301 67.1668 292.349 71.8078 289.67L472.5 58.3301Z" fill="url(#paint1_linear)"/>
<g filter="url(#filter1_f)">
<path fill-rule="evenodd" clip-rule="evenodd" d="M487.5 194.706C482.859 192.026 477.141 192.026 472.5 194.706L189.913 357.858C185.272 360.537 182.413 365.489 182.413 370.848V697.152C182.413 702.511 185.272 707.463 189.913 710.142L472.5 873.294C477.141 875.974 482.859 875.974 487.5 873.294L758.799 716.659L670.702 666.626C659.897 660.489 656.112 646.755 662.249 635.95C668.385 625.144 682.12 621.36 692.925 627.496L777.587 675.579V386.406L682.655 438.196C671.746 444.147 658.079 440.128 652.127 429.22C646.176 418.311 650.195 404.644 661.104 398.692L753.504 348.284L487.5 194.706Z" fill="white"/>
</g>
<path fill-rule="evenodd" clip-rule="evenodd" d="M487.5 194.706C482.859 192.026 477.141 192.026 472.5 194.706L189.913 357.858C185.272 360.537 182.413 365.489 182.413 370.848V697.152C182.413 702.511 185.272 707.463 189.913 710.142L472.5 873.294C477.141 875.974 482.859 875.974 487.5 873.294L758.799 716.659L670.702 666.626C659.897 660.489 656.112 646.755 662.249 635.95C668.385 625.144 682.12 621.36 692.925 627.496L777.587 675.579V386.406L682.655 438.196C671.746 444.147 658.079 440.128 652.127 429.22C646.176 418.311 650.195 404.644 661.104 398.692L753.504 348.284L487.5 194.706Z" fill="white"/>
<g filter="url(#filter2_f)">
<path d="M472.5 291.35C477.141 288.671 482.859 288.671 487.5 291.35L686.391 406.18C691.032 408.859 693.891 413.811 693.891 419.17V648.83C693.891 654.189 691.032 659.141 686.391 661.82L487.5 776.65C482.859 779.329 477.141 779.329 472.5 776.65L273.609 661.82C268.968 659.141 266.109 654.189 266.109 648.83V419.17C266.109 413.811 268.968 408.859 273.609 406.18L472.5 291.35Z" fill="url(#paint2_linear)"/>
</g>
<path d="M472.5 291.35C477.141 288.671 482.859 288.671 487.5 291.35L686.391 406.18C691.032 408.859 693.891 413.811 693.891 419.17V648.83C693.891 654.189 691.032 659.141 686.391 661.82L487.5 776.65C482.859 779.329 477.141 779.329 472.5 776.65L273.609 661.82C268.968 659.141 266.109 654.189 266.109 648.83V419.17C266.109 413.811 268.968 408.859 273.609 406.18L472.5 291.35Z" fill="url(#paint3_linear)"/>
<g filter="url(#filter3_f)">
<path d="M728.093 451.38C728.093 449.3 728.523 447.45 729.383 445.83C730.263 444.19 731.503 442.92 733.103 442.02C734.703 441.1 736.543 440.64 738.623 440.64C741.263 440.64 743.483 441.35 745.283 442.77C747.083 444.17 748.243 446.08 748.763 448.5H742.433C742.053 447.7 741.523 447.09 740.843 446.67C740.183 446.25 739.413 446.04 738.533 446.04C737.173 446.04 736.083 446.53 735.263 447.51C734.463 448.47 734.063 449.76 734.063 451.38C734.063 453.02 734.463 454.33 735.263 455.31C736.083 456.27 737.173 456.75 738.533 456.75C739.413 456.75 740.183 456.54 740.843 456.12C741.523 455.7 742.053 455.09 742.433 454.29H748.763C748.243 456.71 747.083 458.63 745.283 460.05C743.483 461.45 741.263 462.15 738.623 462.15C736.543 462.15 734.703 461.7 733.103 460.8C731.503 459.88 730.263 458.61 729.383 456.99C728.523 455.35 728.093 453.48 728.093 451.38ZM735.261 473.85V486.12C735.261 487.26 735.521 488.14 736.041 488.76C736.581 489.38 737.391 489.69 738.471 489.69C739.551 489.69 740.361 489.38 740.901 488.76C741.461 488.12 741.741 487.24 741.741 486.12V473.85H747.621V486.12C747.621 488.06 747.211 489.72 746.391 491.1C745.571 492.46 744.451 493.49 743.031 494.19C741.631 494.87 740.071 495.21 738.351 495.21C736.631 495.21 735.091 494.87 733.731 494.19C732.391 493.49 731.331 492.46 730.551 491.1C729.791 489.74 729.411 488.08 729.411 486.12V473.85H735.261ZM737.401 523.23H746.191V528H730.801V523.53L739.501 511.59H730.801V506.85H746.191V511.32L737.401 523.23ZM737.842 544.56V548.01H744.592V552.48H737.842V556.29H745.492V561H731.962V539.85H745.492V544.56H737.842ZM747.057 572.85V577.53H741.417V594H735.537V577.53H729.957V572.85H747.057ZM747.963 605.85V627H742.083V618.51H734.913V627H729.033V605.85H734.913V613.8H742.083V605.85H747.963Z" fill="#BD2727"/>
</g>
<path d="M728.093 451.38C728.093 449.3 728.523 447.45 729.383 445.83C730.263 444.19 731.503 442.92 733.103 442.02C734.703 441.1 736.543 440.64 738.623 440.64C741.263 440.64 743.483 441.35 745.283 442.77C747.083 444.17 748.243 446.08 748.763 448.5H742.433C742.053 447.7 741.523 447.09 740.843 446.67C740.183 446.25 739.413 446.04 738.533 446.04C737.173 446.04 736.083 446.53 735.263 447.51C734.463 448.47 734.063 449.76 734.063 451.38C734.063 453.02 734.463 454.33 735.263 455.31C736.083 456.27 737.173 456.75 738.533 456.75C739.413 456.75 740.183 456.54 740.843 456.12C741.523 455.7 742.053 455.09 742.433 454.29H748.763C748.243 456.71 747.083 458.63 745.283 460.05C743.483 461.45 741.263 462.15 738.623 462.15C736.543 462.15 734.703 461.7 733.103 460.8C731.503 459.88 730.263 458.61 729.383 456.99C728.523 455.35 728.093 453.48 728.093 451.38ZM735.261 473.85V486.12C735.261 487.26 735.521 488.14 736.041 488.76C736.581 489.38 737.391 489.69 738.471 489.69C739.551 489.69 740.361 489.38 740.901 488.76C741.461 488.12 741.741 487.24 741.741 486.12V473.85H747.621V486.12C747.621 488.06 747.211 489.72 746.391 491.1C745.571 492.46 744.451 493.49 743.031 494.19C741.631 494.87 740.071 495.21 738.351 495.21C736.631 495.21 735.091 494.87 733.731 494.19C732.391 493.49 731.331 492.46 730.551 491.1C729.791 489.74 729.411 488.08 729.411 486.12V473.85H735.261ZM737.401 523.23H746.191V528H730.801V523.53L739.501 511.59H730.801V506.85H746.191V511.32L737.401 523.23ZM737.842 544.56V548.01H744.592V552.48H737.842V556.29H745.492V561H731.962V539.85H745.492V544.56H737.842ZM747.057 572.85V577.53H741.417V594H735.537V577.53H729.957V572.85H747.057ZM747.963 605.85V627H742.083V618.51H734.913V627H729.033V605.85H734.913V613.8H742.083V605.85H747.963Z" fill="#B91717"/>
<defs>
<filter id="filter0_f" x="8.30786" y="0.320511" width="943.384" height="1067.36" filterUnits="userSpaceOnUse" color-interpolation-filters="sRGB">
<feFlood flood-opacity="0" result="BackgroundImageFix"/>
<feBlend mode="normal" in="SourceGraphic" in2="BackgroundImageFix" result="shape"/>
<feGaussianBlur stdDeviation="28" result="effect1_foregroundBlur"/>
</filter>
<filter id="filter1_f" x="127.413" y="137.696" width="705.175" height="792.607" filterUnits="userSpaceOnUse" color-interpolation-filters="sRGB">
<feFlood flood-opacity="0" result="BackgroundImageFix"/>
<feBlend mode="normal" in="SourceGraphic" in2="BackgroundImageFix" result="shape"/>
<feGaussianBlur stdDeviation="27.5" result="effect1_foregroundBlur"/>
</filter>
<filter id="filter2_f" x="210.109" y="233.341" width="539.782" height="601.319" filterUnits="userSpaceOnUse" color-interpolation-filters="sRGB">
<feFlood flood-opacity="0" result="BackgroundImageFix"/>
<feBlend mode="normal" in="SourceGraphic" in2="BackgroundImageFix" result="shape"/>
<feGaussianBlur stdDeviation="28" result="effect1_foregroundBlur"/>
</filter>
<filter id="filter3_f" x="722.093" y="434.64" width="32.67" height="198.36" filterUnits="userSpaceOnUse" color-interpolation-filters="sRGB">
<feFlood flood-opacity="0" result="BackgroundImageFix"/>
<feBlend mode="normal" in="SourceGraphic" in2="BackgroundImageFix" result="shape"/>
<feGaussianBlur stdDeviation="3" result="effect1_foregroundBlur"/>
</filter>
<linearGradient id="paint0_linear" x1="480" y1="54" x2="480" y2="1014" gradientUnits="userSpaceOnUse">
<stop stop-color="#DF1B1B"/>
<stop offset="1"/>
</linearGradient>
<linearGradient id="paint1_linear" x1="480" y1="54" x2="480" y2="1014" gradientUnits="userSpaceOnUse">
<stop stop-color="#DF1B1B"/>
<stop offset="1"/>
</linearGradient>
<linearGradient id="paint2_linear" x1="480" y1="287.02" x2="480" y2="780.98" gradientUnits="userSpaceOnUse">
<stop stop-color="#DF1B1B"/>
<stop offset="1"/>
</linearGradient>
<linearGradient id="paint3_linear" x1="480" y1="287.02" x2="480" y2="780.98" gradientUnits="userSpaceOnUse">
<stop stop-color="#DF1B1B"/>
<stop offset="1"/>
</linearGradient>
</defs>
</svg>
