<svg width="944" height="1068" viewBox="0 0 944 1068" fill="none" xmlns="http://www.w3.org/2000/svg">
<g filter="url(#filter0_f)">
<path d="M464.192 58.0096C468.833 55.3301 474.551 55.3301 479.192 58.0096L879.884 289.349C884.525 292.029 887.384 296.981 887.384 302.34V765.019C887.384 770.378 884.525 775.33 879.884 778.01L479.192 1009.35C474.551 1012.03 468.833 1012.03 464.192 1009.35L63.5 778.01C58.859 775.33 56 770.378 56 765.019V302.34C56 296.981 58.859 292.029 63.5 289.349L464.192 58.0096Z" fill="url(#paint0_linear)"/>
</g>
<path d="M464.192 58.0096C468.833 55.3301 474.551 55.3301 479.192 58.0096L879.884 289.349C884.525 292.029 887.384 296.981 887.384 302.34V765.019C887.384 770.378 884.525 775.33 879.884 778.01L479.192 1009.35C474.551 1012.03 468.833 1012.03 464.192 1009.35L63.5 778.01C58.859 775.33 56 770.378 56 765.019V302.34C56 296.981 58.859 292.029 63.5 289.349L464.192 58.0096Z" fill="url(#paint1_linear)"/>
<g filter="url(#filter1_f)">
<path d="M746.872 662.532C756.871 668.211 769.279 660.989 769.279 649.489V411.356C769.279 399.97 757.091 392.735 747.096 398.188L693.399 427.482C688.581 430.111 685.583 435.161 685.583 440.65V618.993C685.583 624.39 688.482 629.371 693.175 632.036L746.872 662.532Z" fill="url(#paint2_linear)"/>
<path d="M464.192 194.385C468.833 191.706 474.551 191.706 479.192 194.385L722.055 334.602C732.195 340.457 732.017 355.153 721.738 360.761L666.521 390.884C661.93 393.389 656.366 393.321 651.837 390.707L479.192 291.03C474.551 288.35 468.833 288.35 464.192 291.03L265.301 405.859C260.66 408.539 257.801 413.491 257.801 418.85V648.509C257.801 653.868 260.66 658.82 265.301 661.5L464.192 776.329C468.833 779.009 474.551 779.009 479.192 776.329L658.668 672.709C663.276 670.048 668.949 670.028 673.576 672.656L727.714 703.403C737.795 709.129 737.847 723.639 727.806 729.436L479.192 872.974C474.551 875.653 468.833 875.653 464.192 872.974L181.605 709.822C176.964 707.142 174.105 702.19 174.105 696.831V370.528C174.105 365.169 176.964 360.217 181.605 357.537L464.192 194.385Z" fill="white"/>
</g>
<path d="M746.872 662.532C756.871 668.211 769.279 660.989 769.279 649.489V411.356C769.279 399.97 757.091 392.735 747.096 398.188L693.399 427.482C688.581 430.111 685.583 435.161 685.583 440.65V618.993C685.583 624.39 688.482 629.371 693.175 632.036L746.872 662.532Z" fill="url(#paint3_linear)"/>
<path d="M464.192 194.385C468.833 191.706 474.551 191.706 479.192 194.385L722.055 334.602C732.195 340.457 732.017 355.153 721.738 360.761L666.521 390.884C661.93 393.389 656.366 393.321 651.837 390.707L479.192 291.03C474.551 288.35 468.833 288.35 464.192 291.03L265.301 405.859C260.66 408.539 257.801 413.491 257.801 418.85V648.509C257.801 653.868 260.66 658.82 265.301 661.5L464.192 776.329C468.833 779.009 474.551 779.009 479.192 776.329L658.668 672.709C663.276 670.048 668.949 670.028 673.576 672.656L727.714 703.403C737.795 709.129 737.847 723.639 727.806 729.436L479.192 872.974C474.551 875.653 468.833 875.653 464.192 872.974L181.605 709.822C176.964 707.142 174.105 702.19 174.105 696.831V370.528C174.105 365.169 176.964 360.217 181.605 357.537L464.192 194.385Z" fill="white"/>
<g filter="url(#filter2_f)">
<path d="M464.192 291.03C468.833 288.35 474.551 288.35 479.192 291.03L678.083 405.859C682.724 408.539 685.583 413.491 685.583 418.85V648.509C685.583 653.868 682.724 658.82 678.083 661.5L479.192 776.329C474.551 779.009 468.833 779.009 464.192 776.329L265.301 661.5C260.66 658.82 257.801 653.868 257.801 648.509V418.85C257.801 413.491 260.66 408.539 265.301 405.859L464.192 291.03Z" fill="url(#paint4_linear)"/>
</g>
<path d="M464.192 291.03C468.833 288.35 474.551 288.35 479.192 291.03L678.083 405.859C682.724 408.539 685.583 413.491 685.583 418.85V648.509C685.583 653.868 682.724 658.82 678.083 661.5L479.192 776.329C474.551 779.009 468.833 779.009 464.192 776.329L265.301 661.5C260.66 658.82 257.801 653.868 257.801 648.509V418.85C257.801 413.491 260.66 408.539 265.301 405.859L464.192 291.03Z" fill="url(#paint5_linear)"/>
<defs>
<filter id="filter0_f" x="0" y="0" width="943.384" height="1067.36" filterUnits="userSpaceOnUse" color-interpolation-filters="sRGB">
<feFlood flood-opacity="0" result="BackgroundImageFix"/>
<feBlend mode="normal" in="SourceGraphic" in2="BackgroundImageFix" result="shape"/>
<feGaussianBlur stdDeviation="28" result="effect1_foregroundBlur"/>
</filter>
<filter id="filter1_f" x="119.105" y="137.376" width="705.175" height="792.607" filterUnits="userSpaceOnUse" color-interpolation-filters="sRGB">
<feFlood flood-opacity="0" result="BackgroundImageFix"/>
<feBlend mode="normal" in="SourceGraphic" in2="BackgroundImageFix" result="shape"/>
<feGaussianBlur stdDeviation="27.5" result="effect1_foregroundBlur"/>
</filter>
<filter id="filter2_f" x="201.801" y="233.02" width="539.782" height="601.319" filterUnits="userSpaceOnUse" color-interpolation-filters="sRGB">
<feFlood flood-opacity="0" result="BackgroundImageFix"/>
<feBlend mode="normal" in="SourceGraphic" in2="BackgroundImageFix" result="shape"/>
<feGaussianBlur stdDeviation="28" result="effect1_foregroundBlur"/>
</filter>
<linearGradient id="paint0_linear" x1="471.692" y1="53.6795" x2="471.692" y2="1013.68" gradientUnits="userSpaceOnUse">
<stop stop-color="#DF1B1B"/>
<stop offset="1"/>
</linearGradient>
<linearGradient id="paint1_linear" x1="471.692" y1="53.6795" x2="471.692" y2="1013.68" gradientUnits="userSpaceOnUse">
<stop stop-color="#DF1B1B"/>
<stop offset="1"/>
</linearGradient>
<linearGradient id="paint2_linear" x1="727.431" y1="386.086" x2="727.431" y2="675.258" gradientUnits="userSpaceOnUse">
<stop stop-color="#E13636"/>
<stop offset="1" stop-color="#E24E1F"/>
</linearGradient>
<linearGradient id="paint3_linear" x1="727.431" y1="386.086" x2="727.431" y2="675.258" gradientUnits="userSpaceOnUse">
<stop stop-color="#E13636"/>
<stop offset="1" stop-color="#E24E1F"/>
</linearGradient>
<linearGradient id="paint4_linear" x1="471.692" y1="286.7" x2="471.692" y2="780.659" gradientUnits="userSpaceOnUse">
<stop stop-color="#DF1B1B"/>
<stop offset="1"/>
</linearGradient>
<linearGradient id="paint5_linear" x1="471.692" y1="286.7" x2="471.692" y2="780.659" gradientUnits="userSpaceOnUse">
<stop stop-color="#DF1B1B"/>
<stop offset="1"/>
</linearGradient>
</defs>
</svg>
