<svg width="1770" height="1709" viewBox="0 0 1770 1709" fill="none" xmlns="http://www.w3.org/2000/svg">
<path d="M299.664 814.626H233.811C232.608 806.106 230.152 798.539 226.443 791.924C222.735 785.209 217.974 779.496 212.16 774.785C206.347 770.074 199.631 766.466 192.013 763.96C184.496 761.455 176.326 760.202 167.506 760.202C151.569 760.202 137.686 764.161 125.859 772.079C114.031 779.897 104.86 791.323 98.3443 806.357C91.8291 821.291 88.5715 839.432 88.5715 860.781C88.5715 882.731 91.8291 901.173 98.3443 916.107C104.96 931.041 114.181 942.317 126.009 949.934C137.837 957.552 151.519 961.36 167.055 961.36C175.775 961.36 183.844 960.208 191.261 957.902C198.779 955.597 205.444 952.24 211.258 947.829C217.072 943.319 221.883 937.857 225.692 931.442C229.601 925.027 232.307 917.711 233.811 909.492L299.664 909.793C297.96 923.925 293.701 937.556 286.885 950.686C280.169 963.716 271.098 975.392 259.671 985.716C248.345 995.939 234.813 1004.06 219.076 1010.07C203.44 1015.98 185.748 1018.94 166.002 1018.94C138.538 1018.94 113.981 1012.73 92.3303 1000.3C70.78 987.871 53.7402 969.88 41.2109 946.326C28.7819 922.772 22.5674 894.257 22.5674 860.781C22.5674 827.204 28.8821 798.639 41.5116 775.086C54.1411 751.532 71.2811 733.591 92.9317 721.263C114.582 708.835 138.939 702.62 166.002 702.62C183.844 702.62 200.383 705.126 215.618 710.138C230.954 715.149 244.536 722.466 256.363 732.088C268.191 741.609 277.813 753.286 285.231 767.118C292.748 780.949 297.56 796.785 299.664 814.626Z" fill="url(#paint0_linear)"/>
<path d="M536.543 706.83H601.645V906.786C601.645 929.237 596.282 948.882 585.557 965.72C574.932 982.559 560.048 995.689 540.903 1005.11C521.758 1014.43 499.456 1019.09 473.997 1019.09C448.437 1019.09 426.085 1014.43 406.94 1005.11C387.795 995.689 372.911 982.559 362.286 965.72C351.661 948.882 346.348 929.237 346.348 906.786V706.83H411.451V901.223C411.451 912.95 414.006 923.374 419.118 932.494C424.331 941.615 431.648 948.782 441.07 953.993C450.492 959.205 461.467 961.811 473.997 961.811C486.626 961.811 497.602 959.205 506.923 953.993C516.345 948.782 523.612 941.615 528.724 932.494C533.937 923.374 536.543 912.95 536.543 901.223V706.83Z" fill="url(#paint1_linear)"/>
<path d="M651.9 1014.73V976.094L805.558 760.502H651.599V706.83H887.349V745.468L733.54 961.06H887.65V1014.73H651.9Z" fill="url(#paint2_linear)"/>
<path d="M937.604 1014.73V706.83H1145.09V760.502H1002.71V833.87H1134.41V887.542H1002.71V961.06H1145.69V1014.73H937.604Z" fill="url(#paint3_linear)"/>
<path d="M1185.12 760.502V706.83H1438.01V760.502H1343.74V1014.73H1279.39V760.502H1185.12Z" fill="url(#paint4_linear)"/>
<path d="M1479.66 1014.73V706.83H1544.76V833.87H1676.92V706.83H1741.87V1014.73H1676.92V887.542H1544.76V1014.73H1479.66Z" fill="url(#paint5_linear)"/>
<path d="M170.532 435.701L887.94 21V369.277L475.16 611.635V629.587H170.532V435.701Z" fill="url(#paint6_linear)"/>
<path d="M1428.94 533.443L887.94 217.982V327.318L1339.07 590.799V626.647H1428.94V533.443Z" fill="url(#paint7_linear)"/>
<path d="M887.94 599.631V426.725L1231.94 626.647H921.982C919.593 625.447 919.384 615.029 914.816 610.437C909.441 605.034 895.704 599.03 887.94 599.631Z" fill="url(#paint8_linear)"/>
<path d="M982.027 119.534L992.836 70.9806L1605.35 421.644V626.647H1565.72V454.013L982.027 119.534Z" fill="url(#paint9_linear)"/>
<path d="M1566.27 1078.94H1611.23V1268.14L888.269 1688L161.711 1269.95V1073.53H273.212V1199.67L891.865 1554.66V1626.73L1566.27 1233.91V1078.94Z" fill="url(#paint10_linear)"/>
<path d="M358.704 1156.58V1078.29H803.93L883.242 1129.27H894.057V1078.29H1207.7L1072.51 1163.86H1058.09V1156.58L894.057 1254.9V1307.7L1083.32 1196.64L1106.76 1234.87L1335.68 1100.14V1076.47H1434.82V1156.58L899.465 1473.38H894.057L358.704 1156.58Z" fill="url(#paint11_linear)"/>
<g style="mix-blend-mode:screen" filter="url(#filter0_f)">
<path d="M299.664 814.626H233.811C232.608 806.106 230.152 798.539 226.443 791.924C222.735 785.209 217.974 779.496 212.16 774.785C206.347 770.074 199.631 766.466 192.013 763.96C184.496 761.455 176.326 760.202 167.506 760.202C151.569 760.202 137.686 764.161 125.859 772.079C114.031 779.897 104.86 791.323 98.3443 806.357C91.8291 821.291 88.5715 839.432 88.5715 860.781C88.5715 882.731 91.8291 901.173 98.3443 916.107C104.96 931.041 114.181 942.317 126.009 949.934C137.837 957.552 151.519 961.36 167.055 961.36C175.775 961.36 183.844 960.208 191.261 957.902C198.779 955.597 205.444 952.24 211.258 947.829C217.072 943.319 221.883 937.857 225.692 931.442C229.601 925.027 232.307 917.711 233.811 909.492L299.664 909.793C297.96 923.925 293.701 937.556 286.885 950.686C280.169 963.716 271.098 975.392 259.671 985.716C248.345 995.939 234.813 1004.06 219.076 1010.07C203.44 1015.98 185.748 1018.94 166.002 1018.94C138.538 1018.94 113.981 1012.73 92.3303 1000.3C70.78 987.871 53.7402 969.88 41.2109 946.326C28.7819 922.772 22.5674 894.257 22.5674 860.781C22.5674 827.204 28.8821 798.639 41.5116 775.086C54.1411 751.532 71.2811 733.591 92.9317 721.263C114.582 708.835 138.939 702.62 166.002 702.62C183.844 702.62 200.383 705.126 215.618 710.138C230.954 715.149 244.536 722.466 256.363 732.088C268.191 741.609 277.813 753.286 285.231 767.118C292.748 780.949 297.56 796.785 299.664 814.626Z" fill="url(#paint12_linear)"/>
<path d="M536.543 706.83H601.645V906.786C601.645 929.237 596.282 948.882 585.557 965.72C574.932 982.559 560.048 995.689 540.903 1005.11C521.758 1014.43 499.456 1019.09 473.997 1019.09C448.437 1019.09 426.085 1014.43 406.94 1005.11C387.795 995.689 372.911 982.559 362.286 965.72C351.661 948.882 346.348 929.237 346.348 906.786V706.83H411.451V901.223C411.451 912.95 414.006 923.374 419.118 932.494C424.331 941.615 431.648 948.782 441.07 953.993C450.492 959.205 461.467 961.811 473.997 961.811C486.626 961.811 497.602 959.205 506.923 953.993C516.345 948.782 523.612 941.615 528.724 932.494C533.937 923.374 536.543 912.95 536.543 901.223V706.83Z" fill="url(#paint13_linear)"/>
<path d="M651.9 1014.73V976.094L805.558 760.502H651.599V706.83H887.349V745.468L733.54 961.06H887.65V1014.73H651.9Z" fill="url(#paint14_linear)"/>
<path d="M937.604 1014.73V706.83H1145.09V760.502H1002.71V833.87H1134.41V887.542H1002.71V961.06H1145.69V1014.73H937.604Z" fill="url(#paint15_linear)"/>
<path d="M1185.12 760.502V706.83H1438.01V760.502H1343.74V1014.73H1279.39V760.502H1185.12Z" fill="url(#paint16_linear)"/>
<path d="M1479.66 1014.73V706.83H1544.76V833.87H1676.92V706.83H1741.87V1014.73H1676.92V887.542H1544.76V1014.73H1479.66Z" fill="url(#paint17_linear)"/>
<path d="M170.532 435.701L887.94 21V369.277L475.16 611.635V629.587H170.532V435.701Z" fill="url(#paint18_linear)"/>
<path d="M1428.94 533.443L887.94 217.982V327.318L1339.07 590.799V626.647H1428.94V533.443Z" fill="url(#paint19_linear)"/>
<path d="M887.94 599.631V426.725L1231.94 626.647H921.982C919.593 625.447 919.384 615.029 914.816 610.437C909.441 605.034 895.704 599.03 887.94 599.631Z" fill="url(#paint20_linear)"/>
<path d="M982.027 119.534L992.836 70.9806L1605.35 421.644V626.647H1565.72V454.013L982.027 119.534Z" fill="url(#paint21_linear)"/>
<path d="M1566.27 1078.94H1611.23V1268.14L888.269 1688L161.711 1269.95V1073.53H273.212V1199.67L891.865 1554.66V1626.73L1566.27 1233.91V1078.94Z" fill="url(#paint22_linear)"/>
<path d="M358.704 1156.58V1078.29H803.93L883.242 1129.27H894.057V1078.29H1207.7L1072.51 1163.86H1058.09V1156.58L894.057 1254.9V1307.7L1083.32 1196.64L1106.76 1234.87L1335.68 1100.14V1076.47H1434.82V1156.58L899.465 1473.38H894.057L358.704 1156.58Z" fill="url(#paint23_linear)"/>
</g>
<defs>
<filter id="filter0_f" x="1.56738" y="0" width="1761.3" height="1709" filterUnits="userSpaceOnUse" color-interpolation-filters="sRGB">
<feFlood flood-opacity="0" result="BackgroundImageFix"/>
<feBlend mode="normal" in="SourceGraphic" in2="BackgroundImageFix" result="shape"/>
<feGaussianBlur stdDeviation="10.5" result="effect1_foregroundBlur"/>
</filter>
<linearGradient id="paint0_linear" x1="882.219" y1="21" x2="882.219" y2="1688" gradientUnits="userSpaceOnUse">
<stop stop-color="#EF1D1F"/>
<stop offset="1" stop-color="#760E0F"/>
</linearGradient>
<linearGradient id="paint1_linear" x1="882.219" y1="21" x2="882.219" y2="1688" gradientUnits="userSpaceOnUse">
<stop stop-color="#EF1D1F"/>
<stop offset="1" stop-color="#760E0F"/>
</linearGradient>
<linearGradient id="paint2_linear" x1="882.219" y1="21" x2="882.219" y2="1688" gradientUnits="userSpaceOnUse">
<stop stop-color="#EF1D1F"/>
<stop offset="1" stop-color="#760E0F"/>
</linearGradient>
<linearGradient id="paint3_linear" x1="882.219" y1="21" x2="882.219" y2="1688" gradientUnits="userSpaceOnUse">
<stop stop-color="#EF1D1F"/>
<stop offset="1" stop-color="#760E0F"/>
</linearGradient>
<linearGradient id="paint4_linear" x1="882.219" y1="21" x2="882.219" y2="1688" gradientUnits="userSpaceOnUse">
<stop stop-color="#EF1D1F"/>
<stop offset="1" stop-color="#760E0F"/>
</linearGradient>
<linearGradient id="paint5_linear" x1="882.219" y1="21" x2="882.219" y2="1688" gradientUnits="userSpaceOnUse">
<stop stop-color="#EF1D1F"/>
<stop offset="1" stop-color="#760E0F"/>
</linearGradient>
<linearGradient id="paint6_linear" x1="882.219" y1="21" x2="882.219" y2="1688" gradientUnits="userSpaceOnUse">
<stop stop-color="#EF1D1F"/>
<stop offset="1" stop-color="#760E0F"/>
</linearGradient>
<linearGradient id="paint7_linear" x1="882.219" y1="21" x2="882.219" y2="1688" gradientUnits="userSpaceOnUse">
<stop stop-color="#EF1D1F"/>
<stop offset="1" stop-color="#760E0F"/>
</linearGradient>
<linearGradient id="paint8_linear" x1="882.219" y1="21" x2="882.219" y2="1688" gradientUnits="userSpaceOnUse">
<stop stop-color="#EF1D1F"/>
<stop offset="1" stop-color="#760E0F"/>
</linearGradient>
<linearGradient id="paint9_linear" x1="882.219" y1="21" x2="882.219" y2="1688" gradientUnits="userSpaceOnUse">
<stop stop-color="#EF1D1F"/>
<stop offset="1" stop-color="#760E0F"/>
</linearGradient>
<linearGradient id="paint10_linear" x1="882.219" y1="21" x2="882.219" y2="1688" gradientUnits="userSpaceOnUse">
<stop stop-color="#EF1D1F"/>
<stop offset="1" stop-color="#760E0F"/>
</linearGradient>
<linearGradient id="paint11_linear" x1="882.219" y1="21" x2="882.219" y2="1688" gradientUnits="userSpaceOnUse">
<stop stop-color="#EF1D1F"/>
<stop offset="1" stop-color="#760E0F"/>
</linearGradient>
<linearGradient id="paint12_linear" x1="882.219" y1="21" x2="882.219" y2="1688" gradientUnits="userSpaceOnUse">
<stop stop-color="#EF1D1F"/>
<stop offset="1" stop-color="#760E0F"/>
</linearGradient>
<linearGradient id="paint13_linear" x1="882.219" y1="21" x2="882.219" y2="1688" gradientUnits="userSpaceOnUse">
<stop stop-color="#EF1D1F"/>
<stop offset="1" stop-color="#760E0F"/>
</linearGradient>
<linearGradient id="paint14_linear" x1="882.219" y1="21" x2="882.219" y2="1688" gradientUnits="userSpaceOnUse">
<stop stop-color="#EF1D1F"/>
<stop offset="1" stop-color="#760E0F"/>
</linearGradient>
<linearGradient id="paint15_linear" x1="882.219" y1="21" x2="882.219" y2="1688" gradientUnits="userSpaceOnUse">
<stop stop-color="#EF1D1F"/>
<stop offset="1" stop-color="#760E0F"/>
</linearGradient>
<linearGradient id="paint16_linear" x1="882.219" y1="21" x2="882.219" y2="1688" gradientUnits="userSpaceOnUse">
<stop stop-color="#EF1D1F"/>
<stop offset="1" stop-color="#760E0F"/>
</linearGradient>
<linearGradient id="paint17_linear" x1="882.219" y1="21" x2="882.219" y2="1688" gradientUnits="userSpaceOnUse">
<stop stop-color="#EF1D1F"/>
<stop offset="1" stop-color="#760E0F"/>
</linearGradient>
<linearGradient id="paint18_linear" x1="882.219" y1="21" x2="882.219" y2="1688" gradientUnits="userSpaceOnUse">
<stop stop-color="#EF1D1F"/>
<stop offset="1" stop-color="#760E0F"/>
</linearGradient>
<linearGradient id="paint19_linear" x1="882.219" y1="21" x2="882.219" y2="1688" gradientUnits="userSpaceOnUse">
<stop stop-color="#EF1D1F"/>
<stop offset="1" stop-color="#760E0F"/>
</linearGradient>
<linearGradient id="paint20_linear" x1="882.219" y1="21" x2="882.219" y2="1688" gradientUnits="userSpaceOnUse">
<stop stop-color="#EF1D1F"/>
<stop offset="1" stop-color="#760E0F"/>
</linearGradient>
<linearGradient id="paint21_linear" x1="882.219" y1="21" x2="882.219" y2="1688" gradientUnits="userSpaceOnUse">
<stop stop-color="#EF1D1F"/>
<stop offset="1" stop-color="#760E0F"/>
</linearGradient>
<linearGradient id="paint22_linear" x1="882.219" y1="21" x2="882.219" y2="1688" gradientUnits="userSpaceOnUse">
<stop stop-color="#EF1D1F"/>
<stop offset="1" stop-color="#760E0F"/>
</linearGradient>
<linearGradient id="paint23_linear" x1="882.219" y1="21" x2="882.219" y2="1688" gradientUnits="userSpaceOnUse">
<stop stop-color="#EF1D1F"/>
<stop offset="1" stop-color="#760E0F"/>
</linearGradient>
</defs>
</svg>
