<svg width="832" height="956" viewBox="0 0 832 956" fill="none" xmlns="http://www.w3.org/2000/svg">
<path d="M408.192 2.00962C412.833 -0.669872 418.551 -0.669874 423.192 2.00962L823.884 233.349C828.525 236.029 831.384 240.981 831.384 246.34V709.019C831.384 714.378 828.525 719.33 823.884 722.01L423.192 953.349C418.551 956.029 412.833 956.029 408.192 953.349L7.50001 722.01C2.85899 719.33 0 714.378 0 709.019V246.34C0 240.981 2.85899 236.029 7.5 233.349L408.192 2.00962Z" fill="url(#paint0_linear)"/>
<g filter="url(#filter0_i)">
<path d="M408.192 138.385C412.833 135.706 418.551 135.706 423.192 138.385L666.055 278.602C676.195 284.457 676.017 299.153 665.738 304.761L610.521 334.884C605.93 337.389 600.366 337.321 595.837 334.707L423.192 235.03C418.551 232.35 412.833 232.35 408.192 235.03L209.301 349.859C204.66 352.539 201.801 357.491 201.801 362.85V592.509C201.801 597.868 204.66 602.82 209.301 605.5L408.192 720.329C412.833 723.009 418.551 723.009 423.192 720.329L602.668 616.709C607.276 614.048 612.949 614.028 617.576 616.656L671.714 647.403C681.795 653.129 681.847 667.639 671.806 673.436L423.192 816.974C418.551 819.653 412.833 819.653 408.192 816.974L125.605 653.822C120.964 651.142 118.105 646.19 118.105 640.831V314.528C118.105 309.169 120.964 304.217 125.605 301.537L408.192 138.385Z" fill="url(#paint1_radial)"/>
</g>
<mask id="mask0" mask-type="alpha" maskUnits="userSpaceOnUse" x="0" y="0" width="832" height="956">
<path d="M408.192 2.00962C412.833 -0.669872 418.551 -0.669874 423.192 2.00962L823.884 233.349C828.525 236.029 831.384 240.981 831.384 246.34V709.019C831.384 714.378 828.525 719.33 823.884 722.01L423.192 953.349C418.551 956.029 412.833 956.029 408.192 953.349L7.50001 722.01C2.85899 719.33 0 714.378 0 709.019V246.34C0 240.981 2.85899 236.029 7.5 233.349L408.192 2.00962Z" fill="url(#paint2_linear)"/>
</mask>
<g mask="url(#mask0)">
<g filter="url(#filter1_i)">
<path d="M690.872 606.532C700.871 612.211 713.279 604.989 713.279 593.489V355.356C713.279 343.97 701.091 336.735 691.096 342.188L637.399 371.482C632.581 374.111 629.583 379.161 629.583 384.65V562.993C629.583 568.39 632.482 573.371 637.175 576.036L690.872 606.532Z" fill="url(#paint3_radial)"/>
</g>
<g filter="url(#filter2_f)">
<path d="M690.872 606.532C700.871 612.211 713.279 604.989 713.279 593.489V355.356C713.279 343.97 701.091 336.735 691.096 342.188L637.399 371.482C632.581 374.111 629.583 379.161 629.583 384.65V562.993C629.583 568.39 632.482 573.371 637.175 576.036L690.872 606.532Z" fill="url(#paint4_radial)"/>
</g>
</g>
<g filter="url(#filter3_i)">
<path d="M408.192 235.03C412.833 232.35 418.551 232.35 423.192 235.03L622.083 349.859C626.724 352.539 629.583 357.491 629.583 362.85V592.509C629.583 597.868 626.724 602.82 622.083 605.5L423.192 720.329C418.551 723.009 412.833 723.009 408.192 720.329L209.301 605.5C204.66 602.82 201.801 597.868 201.801 592.509V362.85C201.801 357.491 204.66 352.539 209.301 349.859L408.192 235.03Z" fill="url(#paint5_linear)"/>
</g>
<defs>
<filter id="filter0_i" x="118.105" y="136.376" width="561.201" height="701.607" filterUnits="userSpaceOnUse" color-interpolation-filters="sRGB">
<feFlood flood-opacity="0" result="BackgroundImageFix"/>
<feBlend mode="normal" in="SourceGraphic" in2="BackgroundImageFix" result="shape"/>
<feColorMatrix in="SourceAlpha" type="matrix" values="0 0 0 0 0 0 0 0 0 0 0 0 0 0 0 0 0 0 127 0" result="hardAlpha"/>
<feOffset dy="30"/>
<feGaussianBlur stdDeviation="9.5"/>
<feComposite in2="hardAlpha" operator="arithmetic" k2="-1" k3="1"/>
<feColorMatrix type="matrix" values="0 0 0 0 0 0 0 0 0 0 0 0 0 0 0 0 0 0 0.25 0"/>
<feBlend mode="normal" in2="shape" result="effect1_innerShadow"/>
</filter>
<filter id="filter1_i" x="629.583" y="340.335" width="83.6966" height="287.176" filterUnits="userSpaceOnUse" color-interpolation-filters="sRGB">
<feFlood flood-opacity="0" result="BackgroundImageFix"/>
<feBlend mode="normal" in="SourceGraphic" in2="BackgroundImageFix" result="shape"/>
<feColorMatrix in="SourceAlpha" type="matrix" values="0 0 0 0 0 0 0 0 0 0 0 0 0 0 0 0 0 0 127 0" result="hardAlpha"/>
<feOffset dy="30"/>
<feGaussianBlur stdDeviation="9.5"/>
<feComposite in2="hardAlpha" operator="arithmetic" k2="-1" k3="1"/>
<feColorMatrix type="matrix" values="0 0 0 0 0 0 0 0 0 0 0 0 0 0 0 0 0 0 0.25 0"/>
<feBlend mode="normal" in2="shape" result="effect1_innerShadow"/>
</filter>
<filter id="filter2_f" x="462.583" y="173.335" width="417.697" height="602.176" filterUnits="userSpaceOnUse" color-interpolation-filters="sRGB">
<feFlood flood-opacity="0" result="BackgroundImageFix"/>
<feBlend mode="normal" in="SourceGraphic" in2="BackgroundImageFix" result="shape"/>
<feGaussianBlur stdDeviation="83.5" result="effect1_foregroundBlur"/>
</filter>
<filter id="filter3_i" x="201.801" y="233.02" width="427.782" height="493.319" filterUnits="userSpaceOnUse" color-interpolation-filters="sRGB">
<feFlood flood-opacity="0" result="BackgroundImageFix"/>
<feBlend mode="normal" in="SourceGraphic" in2="BackgroundImageFix" result="shape"/>
<feColorMatrix in="SourceAlpha" type="matrix" values="0 0 0 0 0 0 0 0 0 0 0 0 0 0 0 0 0 0 127 0" result="hardAlpha"/>
<feOffset dy="4"/>
<feGaussianBlur stdDeviation="2"/>
<feComposite in2="hardAlpha" operator="arithmetic" k2="-1" k3="1"/>
<feColorMatrix type="matrix" values="0 0 0 0 0 0 0 0 0 0 0 0 0 0 0 0 0 0 0.25 0"/>
<feBlend mode="normal" in2="shape" result="effect1_innerShadow"/>
</filter>
<linearGradient id="paint0_linear" x1="415.692" y1="-2.32051" x2="455.5" y2="823" gradientUnits="userSpaceOnUse">
<stop stop-color="#1F1E1E"/>
<stop offset="1" stop-color="#090808"/>
</linearGradient>
<radialGradient id="paint1_radial" cx="0" cy="0" r="1" gradientUnits="userSpaceOnUse" gradientTransform="translate(189.485 1031.88) rotate(-79.4986) scale(760.742 578.641)">
<stop stop-color="#770303"/>
<stop offset="1" stop-color="#FF0505"/>
</radialGradient>
<linearGradient id="paint2_linear" x1="415.692" y1="-2.32051" x2="455.5" y2="823" gradientUnits="userSpaceOnUse">
<stop stop-color="#1F1E1E"/>
<stop offset="1" stop-color="#090808"/>
</linearGradient>
<radialGradient id="paint3_radial" cx="0" cy="0" r="1" gradientUnits="userSpaceOnUse" gradientTransform="translate(699.605 592.155) rotate(-110.246) scale(252.847 156.112)">
<stop stop-color="#0216CF"/>
<stop offset="1" stop-color="#0066FF"/>
</radialGradient>
<radialGradient id="paint4_radial" cx="0" cy="0" r="1" gradientUnits="userSpaceOnUse" gradientTransform="translate(699.605 592.155) rotate(-110.246) scale(252.847 156.112)">
<stop stop-color="#0216CF"/>
<stop offset="1" stop-color="#0066FF"/>
</radialGradient>
<linearGradient id="paint5_linear" x1="415.692" y1="231.832" x2="435.988" y2="654.556" gradientUnits="userSpaceOnUse">
<stop stop-color="#1F1E1E"/>
<stop offset="1" stop-color="#090808"/>
</linearGradient>
</defs>
</svg>
